<!--?xml version="1.0" encoding="UTF-8"?-->

<svg version="1.1" xmlns="http://www.w3.org/2000/svg" xmlns:xlink="http://www.w3.org/1999/xlink" x="0" y="0" width="1080" height="1080" viewBox="0, 0, 1080, 1080" style="">
  <g id="Livello_2"></g>
  <g id="Livello_2">
    <path d="M93.12,465.5 L230.806,465.5 C234.207,465.5 236.963,467.892 236.963,470.843 L236.963,610.157 C236.963,613.108 234.207,615.5 230.806,615.5 L93.12,615.5 C89.72,615.5 86.963,613.108 86.963,610.157 L86.963,470.843 C86.963,467.892 89.72,465.5 93.12,465.5 z" fill-opacity="0" stroke="#454545" stroke-width="8" class="oRdQnxTm_0"></path>
    <path d="M849.817,465.5 L987.503,465.5 C990.903,465.5 993.66,467.892 993.66,470.843 L993.66,610.157 C993.66,613.108 990.903,615.5 987.503,615.5 L849.817,615.5 C846.416,615.5 843.66,613.108 843.66,610.157 L843.66,470.843 C843.66,467.892 846.416,465.5 849.817,465.5 z" fill-opacity="0" stroke="#454545" stroke-width="8" class="oRdQnxTm_1"></path>
    <path d="M236.964,540.5 L407.717,540.5" fill-opacity="0" stroke="#454545" stroke-width="8" stroke-linecap="round" class="oRdQnxTm_2"></path>
    <path d="M673.283,540.5 L841.235,540.5" fill-opacity="0" stroke="#454545" stroke-width="8" stroke-linecap="round" class="oRdQnxTm_3"></path>
    <path d="M673.283,617.162 L540.5,693.824 L407.717,617.162 L407.717,463.838 L540.5,387.176 L673.283,463.838 z" fill-opacity="0" stroke="#454545" stroke-width="8" stroke-linejoin="round" stroke-miterlimit="1" class="oRdQnxTm_4"></path>
    <path d="M185.802,582 L199.688,582 L169.161,497.449 L154.981,497.449 L124.454,582 L138.106,582 L145.841,559.148 L178.067,559.148 z M161.778,511.512 L162.13,511.512 L174.728,548.602 L149.181,548.602 z" fill="#454545" class="oRdQnxTm_5"></path>
    <path d="M881.732,582 L896.263,582 L917.591,549.773 L918.002,549.773 L939.037,582 L954.388,582 L926.263,540.047 L926.263,539.695 L954.916,497.449 L940.091,497.449 L918.998,530.145 L918.529,530.145 L897.669,497.449 L882.025,497.449 L909.798,539.227 L909.798,539.637 z" fill="#454545" class="oRdQnxTm_6"></path>
    <g id="gears">
      <g>
        <path d="M543.234,565.163 C542.463,563.539 540.52,562.846 538.895,563.617 C536.251,564.872 533.478,565.909 530.655,566.699 C529.474,567.029 528.579,567.995 528.339,569.197 L524.893,586.427 C524.553,588.128 523.047,589.363 521.312,589.363 L511.911,589.363 C510.176,589.363 508.67,588.128 508.33,586.427 L504.884,569.197 C504.643,567.995 503.748,567.029 502.568,566.699 C498.579,565.583 494.73,563.988 491.128,561.959 C490.059,561.357 488.742,561.406 487.722,562.086 L473.1,571.834 C471.657,572.796 469.719,572.604 468.491,571.377 L461.844,564.73 C460.617,563.503 460.426,561.565 461.388,560.121 L471.135,545.499 C471.816,544.479 471.865,543.163 471.263,542.094 C469.233,538.49 467.638,534.641 466.523,530.654 C466.192,529.472 465.227,528.578 464.024,528.337 L446.795,524.891 C445.094,524.551 443.859,523.045 443.859,521.31 L443.859,511.909 C443.859,510.174 445.093,508.669 446.795,508.328 L464.024,504.882 C465.227,504.641 466.192,503.746 466.523,502.566 C467.639,498.577 469.234,494.729 471.263,491.126 C471.865,490.057 471.815,488.741 471.135,487.72 L461.389,473.1 C460.426,471.656 460.618,469.719 461.845,468.491 L468.492,461.844 C469.719,460.617 471.658,460.426 473.101,461.388 L487.723,471.135 C488.743,471.816 490.06,471.865 491.128,471.263 C494.731,469.233 498.58,467.639 502.569,466.522 C503.75,466.192 504.645,465.227 504.885,464.024 L508.331,446.795 C508.671,445.094 510.177,443.858 511.912,443.858 L521.313,443.858 C523.048,443.858 524.553,445.093 524.894,446.795 L528.34,464.024 C528.581,465.227 529.476,466.192 530.656,466.522 C534.645,467.639 538.494,469.233 542.096,471.263 C543.165,471.865 544.482,471.815 545.502,471.135 L560.123,461.388 C561.567,460.425 563.505,460.618 564.732,461.844 L571.379,468.491 C572.606,469.718 572.798,471.656 571.836,473.1 L562.089,487.722 C561.408,488.742 561.359,490.058 561.961,491.127 C563.99,494.73 565.585,498.579 566.701,502.568 C567.032,503.749 567.997,504.643 569.2,504.884 L586.429,508.33 C588.13,508.67 589.365,510.176 589.365,511.911 L589.365,521.312 C589.365,523.047 588.13,524.552 586.429,524.893 L569.2,528.339 C567.997,528.58 567.032,529.475 566.701,530.656 C565.892,533.549 564.823,536.387 563.526,539.091 C562.747,540.713 563.432,542.659 565.054,543.437 C566.675,544.216 568.622,543.531 569.399,541.91 C570.57,539.469 571.576,536.931 572.398,534.343 L587.707,531.282 C592.441,530.334 595.878,526.141 595.878,521.311 L595.878,511.911 C595.878,507.081 592.441,502.888 587.705,501.941 L572.396,498.879 C571.392,495.718 570.12,492.645 568.595,489.704 L577.255,476.713 C579.934,472.695 579.4,467.299 575.985,463.884 L569.338,457.237 C565.922,453.821 560.526,453.288 556.508,455.966 L543.518,464.627 C540.576,463.102 537.503,461.829 534.343,460.825 L531.281,445.517 C530.335,440.782 526.141,437.345 521.312,437.345 L511.911,437.345 C507.082,437.345 502.889,440.782 501.941,445.518 L498.88,460.826 C495.719,461.83 492.646,463.103 489.705,464.628 L476.715,455.968 C472.697,453.289 467.301,453.822 463.885,457.238 L457.238,463.885 C453.823,467.301 453.289,472.696 455.968,476.715 L464.628,489.705 C463.104,492.646 461.831,495.719 460.827,498.88 L445.518,501.942 C440.782,502.889 437.345,507.082 437.345,511.911 L437.345,521.312 C437.345,526.142 440.782,530.334 445.518,531.282 L460.827,534.344 C461.83,537.504 463.103,540.577 464.628,543.518 L455.968,556.509 C453.289,560.528 453.823,565.923 457.238,569.339 L463.885,575.986 C467.301,579.401 472.696,579.935 476.715,577.256 L489.706,568.596 C492.647,570.12 495.719,571.393 498.88,572.398 L501.942,587.706 C502.889,592.441 507.082,595.879 511.912,595.879 L521.312,595.879 C526.142,595.879 530.335,592.441 531.282,587.705 L534.344,572.397 C536.854,571.6 539.318,570.63 541.689,569.504 C543.314,568.732 544.006,566.789 543.234,565.163 z" fill="#454545" class="oRdQnxTm_7"></path>
        <path d="M543.234,565.163 C542.463,563.539 540.52,562.846 538.895,563.617 C536.251,564.872 533.478,565.909 530.655,566.699 C529.474,567.029 528.579,567.995 528.339,569.197 L524.893,586.427 C524.553,588.128 523.047,589.363 521.312,589.363 L511.911,589.363 C510.176,589.363 508.67,588.128 508.33,586.427 L504.884,569.197 C504.643,567.995 503.748,567.029 502.568,566.699 C498.579,565.583 494.73,563.988 491.128,561.959 C490.059,561.357 488.742,561.406 487.722,562.086 L473.1,571.834 C471.657,572.796 469.719,572.604 468.491,571.377 L461.844,564.73 C460.617,563.503 460.426,561.565 461.388,560.121 L471.135,545.499 C471.816,544.479 471.865,543.163 471.263,542.094 C469.233,538.49 467.638,534.641 466.523,530.654 C466.192,529.472 465.227,528.578 464.024,528.337 L446.795,524.891 C445.094,524.551 443.859,523.045 443.859,521.31 L443.859,511.909 C443.859,510.174 445.093,508.669 446.795,508.328 L464.024,504.882 C465.227,504.641 466.192,503.746 466.523,502.566 C467.639,498.577 469.234,494.729 471.263,491.126 C471.865,490.057 471.815,488.741 471.135,487.72 L461.389,473.1 C460.426,471.656 460.618,469.719 461.845,468.491 L468.492,461.844 C469.719,460.617 471.658,460.426 473.101,461.388 L487.723,471.135 C488.743,471.816 490.06,471.865 491.128,471.263 C494.731,469.233 498.58,467.639 502.569,466.522 C503.75,466.192 504.645,465.227 504.885,464.024 L508.331,446.795 C508.671,445.094 510.177,443.858 511.912,443.858 L521.313,443.858 C523.048,443.858 524.553,445.093 524.894,446.795 L528.34,464.024 C528.581,465.227 529.476,466.192 530.656,466.522 C534.645,467.639 538.494,469.233 542.096,471.263 C543.165,471.865 544.482,471.815 545.502,471.135 L560.123,461.388 C561.567,460.425 563.505,460.618 564.732,461.844 L571.379,468.491 C572.606,469.718 572.798,471.656 571.836,473.1 L562.089,487.722 C561.408,488.742 561.359,490.058 561.961,491.127 C563.99,494.73 565.585,498.579 566.701,502.568 C567.032,503.749 567.997,504.643 569.2,504.884 L586.429,508.33 C588.13,508.67 589.365,510.176 589.365,511.911 L589.365,521.312 C589.365,523.047 588.13,524.552 586.429,524.893 L569.2,528.339 C567.997,528.58 567.032,529.475 566.701,530.656 C565.892,533.549 564.823,536.387 563.526,539.091 C562.747,540.713 563.432,542.659 565.054,543.437 C566.675,544.216 568.622,543.531 569.399,541.91 C570.57,539.469 571.576,536.931 572.398,534.343 L587.707,531.282 C592.441,530.334 595.878,526.141 595.878,521.311 L595.878,511.911 C595.878,507.081 592.441,502.888 587.705,501.941 L572.396,498.879 C571.392,495.718 570.12,492.645 568.595,489.704 L577.255,476.713 C579.934,472.695 579.4,467.299 575.985,463.884 L569.338,457.237 C565.922,453.821 560.526,453.288 556.508,455.966 L543.518,464.627 C540.576,463.102 537.503,461.829 534.343,460.825 L531.281,445.517 C530.335,440.782 526.141,437.345 521.312,437.345 L511.911,437.345 C507.082,437.345 502.889,440.782 501.941,445.518 L498.88,460.826 C495.719,461.83 492.646,463.103 489.705,464.628 L476.715,455.968 C472.697,453.289 467.301,453.822 463.885,457.238 L457.238,463.885 C453.823,467.301 453.289,472.696 455.968,476.715 L464.628,489.705 C463.104,492.646 461.831,495.719 460.827,498.88 L445.518,501.942 C440.782,502.889 437.345,507.082 437.345,511.911 L437.345,521.312 C437.345,526.142 440.782,530.334 445.518,531.282 L460.827,534.344 C461.83,537.504 463.103,540.577 464.628,543.518 L455.968,556.509 C453.289,560.528 453.823,565.923 457.238,569.339 L463.885,575.986 C467.301,579.401 472.696,579.935 476.715,577.256 L489.706,568.596 C492.647,570.12 495.719,571.393 498.88,572.398 L501.942,587.706 C502.889,592.441 507.082,595.879 511.912,595.879 L521.312,595.879 C526.142,595.879 530.335,592.441 531.282,587.705 L534.344,572.397 C536.854,571.6 539.318,570.63 541.689,569.504 C543.314,568.732 544.006,566.789 543.234,565.163 z" fill-opacity="0" stroke="#454545" stroke-width="1" class="oRdQnxTm_8"></path>
      </g>
      <g>
        <path d="M544.827,534.712 C545.303,534.956 545.811,535.072 546.311,535.072 C547.494,535.072 548.636,534.425 549.212,533.3 C551.84,528.177 553.229,522.406 553.229,516.612 C553.229,496.421 536.802,479.995 516.611,479.995 C507.006,479.995 497.929,483.686 491.052,490.391 C489.764,491.647 489.738,493.709 490.993,494.997 C492.249,496.285 494.311,496.312 495.599,495.056 C501.252,489.545 508.714,486.51 516.61,486.51 C533.209,486.51 546.713,500.014 546.713,516.612 C546.713,521.445 545.603,526.06 543.415,530.328 C542.594,531.928 543.227,533.891 544.827,534.712 z" fill="#454545" class="oRdQnxTm_9"></path>
        <path d="M544.827,534.712 C545.303,534.956 545.811,535.072 546.311,535.072 C547.494,535.072 548.636,534.425 549.212,533.3 C551.84,528.177 553.229,522.406 553.229,516.612 C553.229,496.421 536.802,479.995 516.611,479.995 C507.006,479.995 497.929,483.686 491.052,490.391 C489.764,491.647 489.738,493.709 490.993,494.997 C492.249,496.285 494.311,496.312 495.599,495.056 C501.252,489.545 508.714,486.51 516.61,486.51 C533.209,486.51 546.713,500.014 546.713,516.612 C546.713,521.445 545.603,526.06 543.415,530.328 C542.594,531.928 543.227,533.891 544.827,534.712 z" fill-opacity="0" stroke="#454545" stroke-width="1" class="oRdQnxTm_10"></path>
      </g>
      <g>
        <path d="M486.119,502.673 C484.418,502.088 482.565,502.992 481.979,504.693 C480.663,508.521 479.995,512.531 479.995,516.612 C479.995,536.803 496.422,553.229 516.613,553.229 C524.378,553.229 531.797,550.829 538.068,546.287 C539.525,545.232 539.851,543.195 538.797,541.738 C537.742,540.281 535.704,539.955 534.247,541.01 C529.094,544.741 522.996,546.713 516.612,546.713 C500.013,546.713 486.51,533.209 486.51,516.611 C486.51,513.253 487.058,509.955 488.139,506.812 C488.724,505.111 487.82,503.258 486.119,502.673 z" fill="#454545" class="oRdQnxTm_11"></path>
        <path d="M486.119,502.673 C484.418,502.088 482.565,502.992 481.979,504.693 C480.663,508.521 479.995,512.531 479.995,516.612 C479.995,536.803 496.422,553.229 516.613,553.229 C524.378,553.229 531.797,550.829 538.068,546.287 C539.525,545.232 539.851,543.195 538.797,541.738 C537.742,540.281 535.704,539.955 534.247,541.01 C529.094,544.741 522.996,546.713 516.612,546.713 C500.013,546.713 486.51,533.209 486.51,516.611 C486.51,513.253 487.058,509.955 488.139,506.812 C488.724,505.111 487.82,503.258 486.119,502.673 z" fill-opacity="0" stroke="#454545" stroke-width="1" class="oRdQnxTm_12"></path>
      </g>
      <g>
        <path d="M637.386,579.714 L627.966,577.83 C627.393,576.122 626.702,574.455 625.901,572.844 L631.23,564.85 C633.285,561.768 632.875,557.629 630.256,555.01 L625.888,550.642 C623.268,548.023 619.13,547.613 616.048,549.668 L608.054,554.997 C606.443,554.196 604.776,553.505 603.068,552.932 L601.184,543.512 C600.458,539.879 597.242,537.243 593.538,537.243 L587.36,537.243 C583.656,537.243 580.44,539.879 579.713,543.512 L577.829,552.932 C576.122,553.506 574.455,554.197 572.844,554.997 L564.85,549.668 C561.768,547.614 557.629,548.023 555.01,550.642 L550.642,555.01 C548.022,557.63 547.613,561.768 549.668,564.85 L554.997,572.844 C553.895,575.059 553.003,577.38 552.336,579.765 C551.851,581.498 552.863,583.295 554.595,583.78 C556.328,584.265 558.125,583.254 558.61,581.521 C559.319,578.986 560.333,576.54 561.622,574.251 C562.224,573.182 562.175,571.865 561.495,570.845 L555.089,561.237 C554.751,560.729 554.818,560.048 555.249,559.617 L559.617,555.249 C560.049,554.818 560.729,554.752 561.237,555.089 L570.845,561.495 C571.865,562.175 573.182,562.224 574.251,561.622 C576.54,560.333 578.986,559.319 581.521,558.61 C582.702,558.279 583.597,557.314 583.837,556.112 L586.102,544.79 C586.221,544.192 586.75,543.758 587.36,543.758 L593.538,543.758 C594.147,543.758 594.676,544.192 594.796,544.79 L597.06,556.112 C597.301,557.315 598.196,558.28 599.376,558.611 C601.912,559.32 604.358,560.334 606.647,561.623 C607.715,562.225 609.032,562.175 610.053,561.495 L619.661,555.09 C620.168,554.752 620.849,554.818 621.28,555.25 L625.648,559.618 C626.079,560.049 626.146,560.73 625.809,561.237 L619.403,570.846 C618.722,571.866 618.673,573.182 619.275,574.251 C620.565,576.541 621.579,578.987 622.288,581.522 C622.618,582.703 623.583,583.598 624.786,583.838 L636.108,586.102 C636.705,586.221 637.139,586.751 637.139,587.361 L637.139,593.538 C637.139,594.148 636.705,594.677 636.108,594.797 L624.785,597.061 C623.582,597.301 622.617,598.197 622.287,599.377 C621.578,601.912 620.564,604.358 619.274,606.647 C618.672,607.716 618.722,609.033 619.402,610.053 L625.808,619.661 C626.146,620.169 626.079,620.85 625.648,621.281 L621.28,625.649 C620.849,626.08 620.168,626.147 619.66,625.809 L610.052,619.404 C609.031,618.723 607.715,618.674 606.646,619.276 C604.357,620.565 601.911,621.579 599.376,622.288 C598.195,622.619 597.3,623.584 597.059,624.787 L594.795,636.108 C594.676,636.706 594.147,637.14 593.537,637.14 L587.359,637.14 C586.75,637.14 586.221,636.706 586.101,636.108 L583.837,624.786 C583.596,623.583 582.701,622.618 581.521,622.288 C578.985,621.578 576.539,620.565 574.25,619.275 C573.181,618.673 571.864,618.723 570.844,619.403 L561.236,625.809 C560.729,626.147 560.048,626.08 559.617,625.648 L555.249,621.28 C554.818,620.849 554.751,620.168 555.088,619.661 L561.494,610.052 C562.174,609.032 562.224,607.716 561.622,606.647 C560.332,604.357 559.318,601.912 558.609,599.376 C558.279,598.195 557.314,597.3 556.111,597.06 L544.789,594.796 C544.192,594.677 543.758,594.147 543.758,593.537 L543.758,587.36 C543.758,586.751 544.192,586.221 544.789,586.101 L545.482,585.963 C547.246,585.61 548.391,583.894 548.037,582.13 C547.684,580.365 545.97,579.223 544.204,579.574 L543.511,579.713 C539.879,580.44 537.242,583.656 537.242,587.36 L537.242,593.538 C537.242,597.242 539.879,600.458 543.511,601.185 L552.931,603.068 C553.505,604.776 554.196,606.443 554.997,608.054 L549.667,616.048 C547.612,619.13 548.022,623.269 550.642,625.888 L555.01,630.256 C557.629,632.875 561.768,633.285 564.85,631.23 L572.843,625.901 C574.455,626.702 576.122,627.393 577.829,627.966 L579.713,637.386 C580.44,641.019 583.656,643.655 587.36,643.655 L593.538,643.655 C597.242,643.655 600.458,641.019 601.185,637.386 L603.069,627.966 C604.776,627.393 606.443,626.701 608.054,625.9 L616.048,631.23 C619.131,633.284 623.269,632.875 625.888,630.255 L630.256,625.888 C632.876,623.268 633.285,619.13 631.23,616.047 L625.901,608.054 C626.702,606.442 627.393,604.775 627.966,603.068 L637.386,601.184 C641.018,600.458 643.655,597.242 643.655,593.537 L643.655,587.36 C643.655,583.656 641.019,580.44 637.386,579.714 z" fill="#454545" class="oRdQnxTm_13"></path>
        <path d="M637.386,579.714 L627.966,577.83 C627.393,576.122 626.702,574.455 625.901,572.844 L631.23,564.85 C633.285,561.768 632.875,557.629 630.256,555.01 L625.888,550.642 C623.268,548.023 619.13,547.613 616.048,549.668 L608.054,554.997 C606.443,554.196 604.776,553.505 603.068,552.932 L601.184,543.512 C600.458,539.879 597.242,537.243 593.538,537.243 L587.36,537.243 C583.656,537.243 580.44,539.879 579.713,543.512 L577.829,552.932 C576.122,553.506 574.455,554.197 572.844,554.997 L564.85,549.668 C561.768,547.614 557.629,548.023 555.01,550.642 L550.642,555.01 C548.022,557.63 547.613,561.768 549.668,564.85 L554.997,572.844 C553.895,575.059 553.003,577.38 552.336,579.765 C551.851,581.498 552.863,583.295 554.595,583.78 C556.328,584.265 558.125,583.254 558.61,581.521 C559.319,578.986 560.333,576.54 561.622,574.251 C562.224,573.182 562.175,571.865 561.495,570.845 L555.089,561.237 C554.751,560.729 554.818,560.048 555.249,559.617 L559.617,555.249 C560.049,554.818 560.729,554.752 561.237,555.089 L570.845,561.495 C571.865,562.175 573.182,562.224 574.251,561.622 C576.54,560.333 578.986,559.319 581.521,558.61 C582.702,558.279 583.597,557.314 583.837,556.112 L586.102,544.79 C586.221,544.192 586.75,543.758 587.36,543.758 L593.538,543.758 C594.147,543.758 594.676,544.192 594.796,544.79 L597.06,556.112 C597.301,557.315 598.196,558.28 599.376,558.611 C601.912,559.32 604.358,560.334 606.647,561.623 C607.715,562.225 609.032,562.175 610.053,561.495 L619.661,555.09 C620.168,554.752 620.849,554.818 621.28,555.25 L625.648,559.618 C626.079,560.049 626.146,560.73 625.809,561.237 L619.403,570.846 C618.722,571.866 618.673,573.182 619.275,574.251 C620.565,576.541 621.579,578.987 622.288,581.522 C622.618,582.703 623.583,583.598 624.786,583.838 L636.108,586.102 C636.705,586.221 637.139,586.751 637.139,587.361 L637.139,593.538 C637.139,594.148 636.705,594.677 636.108,594.797 L624.785,597.061 C623.582,597.301 622.617,598.197 622.287,599.377 C621.578,601.912 620.564,604.358 619.274,606.647 C618.672,607.716 618.722,609.033 619.402,610.053 L625.808,619.661 C626.146,620.169 626.079,620.85 625.648,621.281 L621.28,625.649 C620.849,626.08 620.168,626.147 619.66,625.809 L610.052,619.404 C609.031,618.723 607.715,618.674 606.646,619.276 C604.357,620.565 601.911,621.579 599.376,622.288 C598.195,622.619 597.3,623.584 597.059,624.787 L594.795,636.108 C594.676,636.706 594.147,637.14 593.537,637.14 L587.359,637.14 C586.75,637.14 586.221,636.706 586.101,636.108 L583.837,624.786 C583.596,623.583 582.701,622.618 581.521,622.288 C578.985,621.578 576.539,620.565 574.25,619.275 C573.181,618.673 571.864,618.723 570.844,619.403 L561.236,625.809 C560.729,626.147 560.048,626.08 559.617,625.648 L555.249,621.28 C554.818,620.849 554.751,620.168 555.088,619.661 L561.494,610.052 C562.174,609.032 562.224,607.716 561.622,606.647 C560.332,604.357 559.318,601.912 558.609,599.376 C558.279,598.195 557.314,597.3 556.111,597.06 L544.789,594.796 C544.192,594.677 543.758,594.147 543.758,593.537 L543.758,587.36 C543.758,586.751 544.192,586.221 544.789,586.101 L545.482,585.963 C547.246,585.61 548.391,583.894 548.037,582.13 C547.684,580.365 545.97,579.223 544.204,579.574 L543.511,579.713 C539.879,580.44 537.242,583.656 537.242,587.36 L537.242,593.538 C537.242,597.242 539.879,600.458 543.511,601.185 L552.931,603.068 C553.505,604.776 554.196,606.443 554.997,608.054 L549.667,616.048 C547.612,619.13 548.022,623.269 550.642,625.888 L555.01,630.256 C557.629,632.875 561.768,633.285 564.85,631.23 L572.843,625.901 C574.455,626.702 576.122,627.393 577.829,627.966 L579.713,637.386 C580.44,641.019 583.656,643.655 587.36,643.655 L593.538,643.655 C597.242,643.655 600.458,641.019 601.185,637.386 L603.069,627.966 C604.776,627.393 606.443,626.701 608.054,625.9 L616.048,631.23 C619.131,633.284 623.269,632.875 625.888,630.255 L630.256,625.888 C632.876,623.268 633.285,619.13 631.23,616.047 L625.901,608.054 C626.702,606.442 627.393,604.775 627.966,603.068 L637.386,601.184 C641.018,600.458 643.655,597.242 643.655,593.537 L643.655,587.36 C643.655,583.656 641.019,580.44 637.386,579.714 z" fill-opacity="0" stroke="#454545" stroke-width="1" class="oRdQnxTm_14"></path>
      </g>
      <g>
        <path d="M590.449,578.722 C596.916,578.722 602.176,583.982 602.176,590.449 C602.176,592.248 603.635,593.706 605.434,593.706 C607.232,593.706 608.691,592.248 608.691,590.449 C608.691,580.39 600.508,572.207 590.449,572.207 C580.39,572.207 572.206,580.39 572.206,590.449 C572.206,600.508 580.39,608.691 590.449,608.691 C594.523,608.691 598.377,607.377 601.594,604.892 C603.017,603.792 603.28,601.746 602.18,600.322 C601.08,598.898 599.034,598.636 597.61,599.736 C595.544,601.332 593.067,602.176 590.449,602.176 C583.982,602.176 578.722,596.915 578.722,590.449 C578.722,583.982 583.983,578.722 590.449,578.722 z" fill="#454545" class="oRdQnxTm_15"></path>
        <path d="M590.449,578.722 C596.916,578.722 602.176,583.982 602.176,590.449 C602.176,592.248 603.635,593.706 605.434,593.706 C607.232,593.706 608.691,592.248 608.691,590.449 C608.691,580.39 600.508,572.207 590.449,572.207 C580.39,572.207 572.206,580.39 572.206,590.449 C572.206,600.508 580.39,608.691 590.449,608.691 C594.523,608.691 598.377,607.377 601.594,604.892 C603.017,603.792 603.28,601.746 602.18,600.322 C601.08,598.898 599.034,598.636 597.61,599.736 C595.544,601.332 593.067,602.176 590.449,602.176 C583.982,602.176 578.722,596.915 578.722,590.449 C578.722,583.982 583.983,578.722 590.449,578.722 z" fill-opacity="0" stroke="#454545" stroke-width="1" class="oRdQnxTm_16"></path>
      </g>
      <g>
        <path d="M536.458,516.612 C536.458,505.668 527.555,496.765 516.612,496.765 C505.668,496.765 496.765,505.669 496.765,516.612 C496.765,527.555 505.668,536.458 516.612,536.458 C527.555,536.458 536.458,527.554 536.458,516.612 z M503.28,516.612 C503.28,509.261 509.261,503.28 516.612,503.28 C523.962,503.28 529.943,509.261 529.943,516.612 C529.943,523.962 523.963,529.943 516.612,529.943 C509.26,529.943 503.28,523.962 503.28,516.612 z" fill="#454545" class="oRdQnxTm_17"></path>
        <path d="M536.458,516.612 C536.458,505.668 527.555,496.765 516.612,496.765 C505.668,496.765 496.765,505.669 496.765,516.612 C496.765,527.555 505.668,536.458 516.612,536.458 C527.555,536.458 536.458,527.554 536.458,516.612 z M503.28,516.612 C503.28,509.261 509.261,503.28 516.612,503.28 C523.962,503.28 529.943,509.261 529.943,516.612 C529.943,523.962 523.963,529.943 516.612,529.943 C509.26,529.943 503.28,523.962 503.28,516.612 z" fill-opacity="0" stroke="#454545" stroke-width="1" class="oRdQnxTm_18"></path>
      </g>
    </g>
    <path d="M407.717,463.838 L455.537,491.655" fill-opacity="0" stroke="#454545" stroke-width="5" stroke-linecap="round" class="oRdQnxTm_19"></path>
    <path d="M600.773,501.155 L673.283,463.838" fill-opacity="0" stroke="#454545" stroke-width="5" stroke-linecap="round" class="oRdQnxTm_20"></path>
    <path d="M540.5,693.824 L540.982,609.472" fill-opacity="0" stroke="#454545" stroke-width="5" stroke-linecap="round" class="oRdQnxTm_21"></path>
  </g>
<style data-made-with="vivus-instant">.oRdQnxTm_0{stroke-dasharray:591 593;stroke-dashoffset:592;animation:oRdQnxTm_draw_0 24800ms ease-out 0ms infinite,oRdQnxTm_fade 24800ms linear 0ms infinite;}.oRdQnxTm_1{stroke-dasharray:591 593;stroke-dashoffset:592;animation:oRdQnxTm_draw_1 24800ms ease-out 0ms infinite,oRdQnxTm_fade 24800ms linear 0ms infinite;}.oRdQnxTm_2{stroke-dasharray:171 173;stroke-dashoffset:172;animation:oRdQnxTm_draw_2 24800ms ease-out 0ms infinite,oRdQnxTm_fade 24800ms linear 0ms infinite;}.oRdQnxTm_3{stroke-dasharray:168 170;stroke-dashoffset:169;animation:oRdQnxTm_draw_3 24800ms ease-out 0ms infinite,oRdQnxTm_fade 24800ms linear 0ms infinite;}.oRdQnxTm_4{stroke-dasharray:920 922;stroke-dashoffset:921;animation:oRdQnxTm_draw_4 24800ms ease-out 0ms infinite,oRdQnxTm_fade 24800ms linear 0ms infinite;}.oRdQnxTm_5{stroke-dasharray:407 409;stroke-dashoffset:408;animation:oRdQnxTm_draw_5 24800ms ease-out 0ms infinite,oRdQnxTm_fade 24800ms linear 0ms infinite;}.oRdQnxTm_6{stroke-dasharray:420 422;stroke-dashoffset:421;animation:oRdQnxTm_draw_6 24800ms ease-out 0ms infinite,oRdQnxTm_fade 24800ms linear 0ms infinite;}.oRdQnxTm_7{stroke-dasharray:1101 1103;stroke-dashoffset:1102;animation:oRdQnxTm_draw_7 24800ms ease-out 0ms infinite,oRdQnxTm_fade 24800ms linear 0ms infinite;}.oRdQnxTm_8{stroke-dasharray:1101 1103;stroke-dashoffset:1102;animation:oRdQnxTm_draw_8 24800ms ease-out 0ms infinite,oRdQnxTm_fade 24800ms linear 0ms infinite;}.oRdQnxTm_9{stroke-dasharray:209 211;stroke-dashoffset:210;animation:oRdQnxTm_draw_9 24800ms ease-out 0ms infinite,oRdQnxTm_fade 24800ms linear 0ms infinite;}.oRdQnxTm_10{stroke-dasharray:209 211;stroke-dashoffset:210;animation:oRdQnxTm_draw_10 24800ms ease-out 0ms infinite,oRdQnxTm_fade 24800ms linear 0ms infinite;}.oRdQnxTm_11{stroke-dasharray:190 192;stroke-dashoffset:191;animation:oRdQnxTm_draw_11 24800ms ease-out 0ms infinite,oRdQnxTm_fade 24800ms linear 0ms infinite;}.oRdQnxTm_12{stroke-dasharray:190 192;stroke-dashoffset:191;animation:oRdQnxTm_draw_12 24800ms ease-out 0ms infinite,oRdQnxTm_fade 24800ms linear 0ms infinite;}.oRdQnxTm_13{stroke-dasharray:800 802;stroke-dashoffset:801;animation:oRdQnxTm_draw_13 24800ms ease-out 0ms infinite,oRdQnxTm_fade 24800ms linear 0ms infinite;}.oRdQnxTm_14{stroke-dasharray:800 802;stroke-dashoffset:801;animation:oRdQnxTm_draw_14 24800ms ease-out 0ms infinite,oRdQnxTm_fade 24800ms linear 0ms infinite;}.oRdQnxTm_15{stroke-dasharray:182 184;stroke-dashoffset:183;animation:oRdQnxTm_draw_15 24800ms ease-out 0ms infinite,oRdQnxTm_fade 24800ms linear 0ms infinite;}.oRdQnxTm_16{stroke-dasharray:182 184;stroke-dashoffset:183;animation:oRdQnxTm_draw_16 24800ms ease-out 0ms infinite,oRdQnxTm_fade 24800ms linear 0ms infinite;}.oRdQnxTm_17{stroke-dasharray:209 211;stroke-dashoffset:210;animation:oRdQnxTm_draw_17 24800ms ease-out 0ms infinite,oRdQnxTm_fade 24800ms linear 0ms infinite;}.oRdQnxTm_18{stroke-dasharray:209 211;stroke-dashoffset:210;animation:oRdQnxTm_draw_18 24800ms ease-out 0ms infinite,oRdQnxTm_fade 24800ms linear 0ms infinite;}.oRdQnxTm_19{stroke-dasharray:56 58;stroke-dashoffset:57;animation:oRdQnxTm_draw_19 24800ms ease-out 0ms infinite,oRdQnxTm_fade 24800ms linear 0ms infinite;}.oRdQnxTm_20{stroke-dasharray:82 84;stroke-dashoffset:83;animation:oRdQnxTm_draw_20 24800ms ease-out 0ms infinite,oRdQnxTm_fade 24800ms linear 0ms infinite;}.oRdQnxTm_21{stroke-dasharray:85 87;stroke-dashoffset:86;animation:oRdQnxTm_draw_21 24800ms ease-out 0ms infinite,oRdQnxTm_fade 24800ms linear 0ms infinite;}@keyframes oRdQnxTm_draw{100%{stroke-dashoffset:0;}}@keyframes oRdQnxTm_fade{0%{stroke-opacity:1;}95.96774193548387%{stroke-opacity:1;}100%{stroke-opacity:0;}}@keyframes oRdQnxTm_draw_0{3.225806451612903%{stroke-dashoffset: 592}56.98924731182795%{ stroke-dashoffset: 0;}100%{ stroke-dashoffset: 0;}}@keyframes oRdQnxTm_draw_1{4.505888376856119%{stroke-dashoffset: 592}58.26932923707117%{ stroke-dashoffset: 0;}100%{ stroke-dashoffset: 0;}}@keyframes oRdQnxTm_draw_2{5.785970302099335%{stroke-dashoffset: 172}59.54941116231438%{ stroke-dashoffset: 0;}100%{ stroke-dashoffset: 0;}}@keyframes oRdQnxTm_draw_3{7.066052227342549%{stroke-dashoffset: 169}60.829493087557594%{ stroke-dashoffset: 0;}100%{ stroke-dashoffset: 0;}}@keyframes oRdQnxTm_draw_4{8.346134152585766%{stroke-dashoffset: 921}62.109575012800825%{ stroke-dashoffset: 0;}100%{ stroke-dashoffset: 0;}}@keyframes oRdQnxTm_draw_5{9.626216077828982%{stroke-dashoffset: 408}63.38965693804403%{ stroke-dashoffset: 0;}100%{ stroke-dashoffset: 0;}}@keyframes oRdQnxTm_draw_6{10.906298003072196%{stroke-dashoffset: 421}64.66973886328724%{ stroke-dashoffset: 0;}100%{ stroke-dashoffset: 0;}}@keyframes oRdQnxTm_draw_7{12.186379928315413%{stroke-dashoffset: 1102}65.94982078853047%{ stroke-dashoffset: 0;}100%{ stroke-dashoffset: 0;}}@keyframes oRdQnxTm_draw_8{13.466461853558629%{stroke-dashoffset: 1102}67.22990271377368%{ stroke-dashoffset: 0;}100%{ stroke-dashoffset: 0;}}@keyframes oRdQnxTm_draw_9{14.746543778801843%{stroke-dashoffset: 210}68.50998463901689%{ stroke-dashoffset: 0;}100%{ stroke-dashoffset: 0;}}@keyframes oRdQnxTm_draw_10{16.02662570404506%{stroke-dashoffset: 210}69.79006656426012%{ stroke-dashoffset: 0;}100%{ stroke-dashoffset: 0;}}@keyframes oRdQnxTm_draw_11{17.306707629288272%{stroke-dashoffset: 191}71.07014848950331%{ stroke-dashoffset: 0;}100%{ stroke-dashoffset: 0;}}@keyframes oRdQnxTm_draw_12{18.58678955453149%{stroke-dashoffset: 191}72.35023041474655%{ stroke-dashoffset: 0;}100%{ stroke-dashoffset: 0;}}@keyframes oRdQnxTm_draw_13{19.866871479774705%{stroke-dashoffset: 801}73.63031233998976%{ stroke-dashoffset: 0;}100%{ stroke-dashoffset: 0;}}@keyframes oRdQnxTm_draw_14{21.14695340501792%{stroke-dashoffset: 801}74.91039426523297%{ stroke-dashoffset: 0;}100%{ stroke-dashoffset: 0;}}@keyframes oRdQnxTm_draw_15{22.427035330261138%{stroke-dashoffset: 183}76.19047619047619%{ stroke-dashoffset: 0;}100%{ stroke-dashoffset: 0;}}@keyframes oRdQnxTm_draw_16{23.707117255504354%{stroke-dashoffset: 183}77.47055811571938%{ stroke-dashoffset: 0;}100%{ stroke-dashoffset: 0;}}@keyframes oRdQnxTm_draw_17{24.987199180747567%{stroke-dashoffset: 210}78.75064004096262%{ stroke-dashoffset: 0;}100%{ stroke-dashoffset: 0;}}@keyframes oRdQnxTm_draw_18{26.267281105990786%{stroke-dashoffset: 210}80.03072196620583%{ stroke-dashoffset: 0;}100%{ stroke-dashoffset: 0;}}@keyframes oRdQnxTm_draw_19{27.547363031234003%{stroke-dashoffset: 57}81.31080389144904%{ stroke-dashoffset: 0;}100%{ stroke-dashoffset: 0;}}@keyframes oRdQnxTm_draw_20{28.827444956477215%{stroke-dashoffset: 83}82.59088581669226%{ stroke-dashoffset: 0;}100%{ stroke-dashoffset: 0;}}@keyframes oRdQnxTm_draw_21{30.107526881720432%{stroke-dashoffset: 86}83.87096774193549%{ stroke-dashoffset: 0;}100%{ stroke-dashoffset: 0;}}</style></svg>
