<?xml version="1.0" encoding="UTF-8"?>
<!DOCTYPE svg PUBLIC "-//W3C//DTD SVG 1.1//EN" "http://www.w3.org/Graphics/SVG/1.1/DTD/svg11.dtd">
<svg version="1.1" xmlns="http://www.w3.org/2000/svg" xmlns:xlink="http://www.w3.org/1999/xlink" x="0" y="0" width="1080" height="1080" viewBox="0, 0, 1080, 1080">
  <g id="Livello_2"/>
  <g id="Livello_2">
    <path d="M93.12,465.5 L230.806,465.5 C234.207,465.5 236.963,467.892 236.963,470.843 L236.963,610.157 C236.963,613.108 234.207,615.5 230.806,615.5 L93.12,615.5 C89.72,615.5 86.963,613.108 86.963,610.157 L86.963,470.843 C86.963,467.892 89.72,465.5 93.12,465.5 z" fill-opacity="0" stroke="#454545" stroke-width="8"/>
    <path d="M849.817,465.5 L987.503,465.5 C990.903,465.5 993.66,467.892 993.66,470.843 L993.66,610.157 C993.66,613.108 990.903,615.5 987.503,615.5 L849.817,615.5 C846.416,615.5 843.66,613.108 843.66,610.157 L843.66,470.843 C843.66,467.892 846.416,465.5 849.817,465.5 z" fill-opacity="0" stroke="#454545" stroke-width="8"/>
    <path d="M236.963,540.5 L321.939,540.5" fill-opacity="0" stroke="#454545" stroke-width="8" stroke-linecap="round"/>
    <path d="M755.867,540.5 L843.66,540.5" fill-opacity="0" stroke="#454545" stroke-width="8" stroke-linecap="round"/>
    <path d="M518.514,540.5 L564.492,540.5" fill-opacity="0" stroke="#454545" stroke-width="8" stroke-linecap="round"/>
    <path d="M185.802,582 L199.688,582 L169.161,497.449 L154.981,497.449 L124.454,582 L138.106,582 L145.841,559.148 L178.067,559.148 z M161.778,511.512 L162.13,511.512 L174.728,548.602 L149.181,548.602 z" fill="#454545"/>
    <path d="M887.72,581 L951.236,581 L951.236,569.633 L904.009,569.633 L904.009,569.223 L950.123,505.414 L950.123,496.449 L889.127,496.449 L889.127,507.758 L934.009,507.758 L934.009,508.227 L887.72,572.035 z" fill="#454545"/>
    <g>
      <path d="M515.542,596.466 L420.338,651.432 L325.133,596.466 L325.133,486.534 L420.338,431.568 L515.542,486.534 z" fill-opacity="0" stroke="#454545" stroke-width="8" stroke-linejoin="round" stroke-miterlimit="1"/>
      <g id="gears">
        <g>
          <path d="M422.298,559.183 C421.745,558.019 420.352,557.522 419.187,558.075 C417.291,558.975 415.303,559.718 413.279,560.284 C412.432,560.521 411.79,561.213 411.618,562.076 L409.148,574.429 C408.904,575.649 407.824,576.534 406.58,576.534 L399.84,576.534 C398.596,576.534 397.516,575.649 397.272,574.429 L394.801,562.076 C394.629,561.213 393.987,560.521 393.14,560.284 C390.281,559.484 387.521,558.341 384.938,556.886 C384.171,556.454 383.228,556.49 382.496,556.977 L372.013,563.966 C370.978,564.656 369.588,564.518 368.708,563.639 L363.942,558.873 C363.062,557.993 362.925,556.603 363.615,555.568 L370.604,545.085 C371.091,544.353 371.127,543.409 370.695,542.643 C369.24,540.059 368.096,537.299 367.296,534.44 C367.059,533.593 366.367,532.952 365.505,532.779 L353.152,530.309 C351.932,530.065 351.047,528.985 351.047,527.741 L351.047,521.001 C351.047,519.757 351.932,518.677 353.152,518.433 L365.505,515.962 C366.367,515.79 367.059,515.148 367.296,514.302 C368.097,511.442 369.24,508.682 370.695,506.099 C371.127,505.333 371.091,504.389 370.604,503.657 L363.615,493.175 C362.925,492.14 363.063,490.75 363.943,489.87 L368.709,485.104 C369.588,484.225 370.978,484.087 372.013,484.777 L382.497,491.766 C383.228,492.254 384.172,492.289 384.938,491.857 C387.522,490.402 390.281,489.259 393.141,488.459 C393.988,488.222 394.629,487.53 394.802,486.667 L397.272,474.314 C397.516,473.094 398.596,472.209 399.84,472.209 L406.58,472.209 C407.824,472.209 408.904,473.094 409.148,474.314 L411.619,486.667 C411.791,487.53 412.433,488.222 413.28,488.459 C416.139,489.259 418.899,490.402 421.482,491.857 C422.249,492.289 423.192,492.254 423.924,491.766 L434.407,484.777 C435.442,484.087 436.832,484.225 437.712,485.104 L442.478,489.87 C443.358,490.75 443.495,492.14 442.805,493.175 L435.816,503.658 C435.328,504.39 435.293,505.334 435.725,506.1 C437.18,508.683 438.323,511.443 439.124,514.303 C439.361,515.149 440.052,515.791 440.915,515.963 L453.268,518.434 C454.488,518.678 455.373,519.758 455.373,521.002 L455.373,527.742 C455.373,528.986 454.488,530.066 453.268,530.31 L440.915,532.781 C440.052,532.953 439.361,533.595 439.124,534.442 C438.543,536.516 437.777,538.551 436.847,540.49 C436.289,541.653 436.779,543.048 437.942,543.606 C439.105,544.164 440.501,543.673 441.058,542.511 C441.898,540.761 442.619,538.941 443.208,537.086 L454.184,534.891 C457.579,534.211 460.043,531.205 460.043,527.742 L460.043,521.002 C460.043,517.539 457.579,514.533 454.183,513.853 L443.207,511.658 C442.487,509.392 441.575,507.189 440.481,505.08 L446.691,495.766 C448.611,492.884 448.229,489.016 445.78,486.567 L441.014,481.801 C438.565,479.352 434.696,478.97 431.815,480.89 L422.501,487.099 C420.392,486.006 418.189,485.094 415.923,484.374 L413.728,473.398 C413.049,470.003 410.043,467.539 406.58,467.539 L399.84,467.539 C396.377,467.539 393.371,470.003 392.691,473.399 L390.496,484.375 C388.23,485.095 386.027,486.007 383.918,487.1 L374.604,480.891 C371.723,478.97 367.854,479.353 365.405,481.802 L360.64,486.568 C358.191,489.017 357.808,492.885 359.729,495.766 L365.938,505.081 C364.845,507.189 363.932,509.392 363.212,511.659 L352.236,513.854 C348.841,514.533 346.376,517.539 346.376,521.002 L346.376,527.742 C346.376,531.205 348.841,534.211 352.237,534.891 L363.212,537.086 C363.932,539.352 364.845,541.555 365.938,543.664 L359.729,552.978 C357.808,555.86 358.191,559.728 360.64,562.177 L365.405,566.943 C367.854,569.392 371.723,569.774 374.604,567.854 L383.918,561.645 C386.027,562.738 388.23,563.65 390.497,564.37 L392.692,575.347 C393.371,578.741 396.377,581.206 399.84,581.206 L406.58,581.206 C410.043,581.206 413.049,578.742 413.729,575.346 L415.924,564.37 C417.723,563.798 419.49,563.103 421.19,562.296 C422.355,561.742 422.852,560.349 422.298,559.183 z" fill="#454545"/>
          <path d="M422.298,559.183 C421.745,558.019 420.352,557.522 419.187,558.075 C417.291,558.975 415.303,559.718 413.279,560.284 C412.432,560.521 411.79,561.213 411.618,562.076 L409.148,574.429 C408.904,575.649 407.824,576.534 406.58,576.534 L399.84,576.534 C398.596,576.534 397.516,575.649 397.272,574.429 L394.801,562.076 C394.629,561.213 393.987,560.521 393.14,560.284 C390.281,559.484 387.521,558.341 384.938,556.886 C384.171,556.454 383.228,556.49 382.496,556.977 L372.013,563.966 C370.978,564.656 369.588,564.518 368.708,563.639 L363.942,558.873 C363.062,557.993 362.925,556.603 363.615,555.568 L370.604,545.085 C371.091,544.353 371.127,543.409 370.695,542.643 C369.24,540.059 368.096,537.299 367.296,534.44 C367.059,533.593 366.367,532.952 365.505,532.779 L353.152,530.309 C351.932,530.065 351.047,528.985 351.047,527.741 L351.047,521.001 C351.047,519.757 351.932,518.677 353.152,518.433 L365.505,515.962 C366.367,515.79 367.059,515.148 367.296,514.302 C368.097,511.442 369.24,508.682 370.695,506.099 C371.127,505.333 371.091,504.389 370.604,503.657 L363.615,493.175 C362.925,492.14 363.063,490.75 363.943,489.87 L368.709,485.104 C369.588,484.225 370.978,484.087 372.013,484.777 L382.497,491.766 C383.228,492.254 384.172,492.289 384.938,491.857 C387.522,490.402 390.281,489.259 393.141,488.459 C393.988,488.222 394.629,487.53 394.802,486.667 L397.272,474.314 C397.516,473.094 398.596,472.209 399.84,472.209 L406.58,472.209 C407.824,472.209 408.904,473.094 409.148,474.314 L411.619,486.667 C411.791,487.53 412.433,488.222 413.28,488.459 C416.139,489.259 418.899,490.402 421.482,491.857 C422.249,492.289 423.192,492.254 423.924,491.766 L434.407,484.777 C435.442,484.087 436.832,484.225 437.712,485.104 L442.478,489.87 C443.358,490.75 443.495,492.14 442.805,493.175 L435.816,503.658 C435.328,504.39 435.293,505.334 435.725,506.1 C437.18,508.683 438.323,511.443 439.124,514.303 C439.361,515.149 440.052,515.791 440.915,515.963 L453.268,518.434 C454.488,518.678 455.373,519.758 455.373,521.002 L455.373,527.742 C455.373,528.986 454.488,530.066 453.268,530.31 L440.915,532.781 C440.052,532.953 439.361,533.595 439.124,534.442 C438.543,536.516 437.777,538.551 436.847,540.49 C436.289,541.653 436.779,543.048 437.942,543.606 C439.105,544.164 440.501,543.673 441.058,542.511 C441.898,540.761 442.619,538.941 443.208,537.086 L454.184,534.891 C457.579,534.211 460.043,531.205 460.043,527.742 L460.043,521.002 C460.043,517.539 457.579,514.533 454.183,513.853 L443.207,511.658 C442.487,509.392 441.575,507.189 440.481,505.08 L446.691,495.766 C448.611,492.884 448.229,489.016 445.78,486.567 L441.014,481.801 C438.565,479.352 434.696,478.97 431.815,480.89 L422.501,487.099 C420.392,486.006 418.189,485.094 415.923,484.374 L413.728,473.398 C413.049,470.003 410.043,467.539 406.58,467.539 L399.84,467.539 C396.377,467.539 393.371,470.003 392.691,473.399 L390.496,484.375 C388.23,485.095 386.027,486.007 383.918,487.1 L374.604,480.891 C371.723,478.97 367.854,479.353 365.405,481.802 L360.64,486.568 C358.191,489.017 357.808,492.885 359.729,495.766 L365.938,505.081 C364.845,507.189 363.932,509.392 363.212,511.659 L352.236,513.854 C348.841,514.533 346.376,517.539 346.376,521.002 L346.376,527.742 C346.376,531.205 348.841,534.211 352.237,534.891 L363.212,537.086 C363.932,539.352 364.845,541.555 365.938,543.664 L359.729,552.978 C357.808,555.86 358.191,559.728 360.64,562.177 L365.405,566.943 C367.854,569.392 371.723,569.774 374.604,567.854 L383.918,561.645 C386.027,562.738 388.23,563.65 390.497,564.37 L392.692,575.347 C393.371,578.741 396.377,581.206 399.84,581.206 L406.58,581.206 C410.043,581.206 413.049,578.742 413.729,575.346 L415.924,564.37 C417.723,563.798 419.49,563.103 421.19,562.296 C422.355,561.742 422.852,560.349 422.298,559.183 z" fill-opacity="0" stroke="#454545" stroke-width="1"/>
        </g>
        <g>
          <path d="M423.44,537.35 C423.781,537.525 424.145,537.608 424.504,537.608 C425.352,537.608 426.171,537.144 426.584,536.338 C428.468,532.664 429.464,528.527 429.464,524.372 C429.464,509.896 417.686,498.118 403.21,498.118 C396.322,498.118 389.814,500.765 384.884,505.572 C383.96,506.473 383.941,507.952 384.842,508.875 C385.742,509.798 387.221,509.818 388.144,508.917 C392.197,504.966 397.547,502.79 403.209,502.79 C415.11,502.79 424.792,512.472 424.792,524.373 C424.792,527.838 423.996,531.147 422.427,534.207 C421.839,535.354 422.292,536.761 423.44,537.35 z" fill="#454545"/>
          <path d="M423.44,537.35 C423.781,537.525 424.145,537.608 424.504,537.608 C425.352,537.608 426.171,537.144 426.584,536.338 C428.468,532.664 429.464,528.527 429.464,524.372 C429.464,509.896 417.686,498.118 403.21,498.118 C396.322,498.118 389.814,500.765 384.884,505.572 C383.96,506.473 383.941,507.952 384.842,508.875 C385.742,509.798 387.221,509.818 388.144,508.917 C392.197,504.966 397.547,502.79 403.209,502.79 C415.11,502.79 424.792,512.472 424.792,524.373 C424.792,527.838 423.996,531.147 422.427,534.207 C421.839,535.354 422.292,536.761 423.44,537.35 z" fill-opacity="0" stroke="#454545" stroke-width="1"/>
        </g>
        <g>
          <path d="M381.347,514.378 C380.127,513.959 378.799,514.607 378.379,515.827 C377.435,518.571 376.956,521.446 376.956,524.372 C376.956,538.849 388.734,550.626 403.21,550.626 C408.778,550.626 414.097,548.906 418.594,545.649 C419.639,544.893 419.873,543.432 419.116,542.388 C418.36,541.343 416.899,541.109 415.854,541.865 C412.16,544.541 407.788,545.955 403.21,545.955 C391.309,545.955 381.627,536.272 381.627,524.372 C381.627,521.964 382.02,519.6 382.795,517.346 C383.215,516.126 382.566,514.798 381.347,514.378 z" fill="#454545"/>
          <path d="M381.347,514.378 C380.127,513.959 378.799,514.607 378.379,515.827 C377.435,518.571 376.956,521.446 376.956,524.372 C376.956,538.849 388.734,550.626 403.21,550.626 C408.778,550.626 414.097,548.906 418.594,545.649 C419.639,544.893 419.873,543.432 419.116,542.388 C418.36,541.343 416.899,541.109 415.854,541.865 C412.16,544.541 407.788,545.955 403.21,545.955 C391.309,545.955 381.627,536.272 381.627,524.372 C381.627,521.964 382.02,519.6 382.795,517.346 C383.215,516.126 382.566,514.798 381.347,514.378 z" fill-opacity="0" stroke="#454545" stroke-width="1"/>
        </g>
        <g>
          <path d="M489.804,569.616 L483.05,568.265 C482.639,567.041 482.143,565.846 481.569,564.69 L485.39,558.959 C486.863,556.749 486.57,553.782 484.692,551.904 L481.56,548.772 C479.682,546.894 476.714,546.6 474.505,548.073 L468.773,551.894 C467.618,551.32 466.423,550.825 465.198,550.414 L463.848,543.66 C463.327,541.055 461.021,539.165 458.365,539.165 L453.936,539.165 C451.28,539.165 448.974,541.055 448.453,543.66 L447.102,550.414 C445.878,550.825 444.683,551.32 443.528,551.894 L437.796,548.073 C435.586,546.6 432.619,546.894 430.741,548.772 L427.609,551.904 C425.731,553.782 425.438,556.749 426.911,558.959 L430.732,564.69 C429.942,566.279 429.302,567.942 428.824,569.653 C428.476,570.895 429.201,572.184 430.444,572.532 C431.686,572.879 432.974,572.154 433.322,570.912 C433.831,569.094 434.558,567.34 435.482,565.699 C435.914,564.932 435.878,563.989 435.391,563.257 L430.798,556.368 C430.555,556.004 430.604,555.516 430.913,555.207 L434.044,552.075 C434.354,551.766 434.842,551.718 435.206,551.96 L442.095,556.553 C442.826,557.041 443.77,557.076 444.537,556.644 C446.178,555.72 447.932,554.993 449.749,554.485 C450.596,554.248 451.238,553.556 451.41,552.693 L453.034,544.576 C453.119,544.147 453.499,543.836 453.936,543.836 L458.365,543.836 C458.802,543.836 459.182,544.147 459.267,544.576 L460.891,552.694 C461.063,553.556 461.705,554.248 462.551,554.485 C464.369,554.994 466.123,555.721 467.764,556.645 C468.53,557.077 469.475,557.041 470.206,556.553 L477.095,551.961 C477.459,551.718 477.947,551.766 478.256,552.076 L481.388,555.207 C481.697,555.517 481.745,556.005 481.503,556.369 L476.91,563.258 C476.422,563.99 476.387,564.933 476.819,565.7 C477.743,567.341 478.47,569.095 478.979,570.912 C479.216,571.759 479.908,572.401 480.77,572.573 L488.887,574.196 C489.316,574.282 489.627,574.662 489.627,575.099 L489.627,579.528 C489.627,579.965 489.316,580.344 488.887,580.43 L480.769,582.054 C479.907,582.226 479.215,582.868 478.978,583.714 C478.47,585.532 477.743,587.286 476.818,588.927 C476.387,589.694 476.422,590.638 476.91,591.369 L481.503,598.258 C481.745,598.622 481.697,599.11 481.388,599.419 L478.256,602.551 C477.947,602.86 477.459,602.908 477.095,602.666 L470.206,598.073 C469.474,597.586 468.53,597.55 467.764,597.982 C466.122,598.906 464.369,599.633 462.551,600.142 C461.704,600.378 461.062,601.07 460.89,601.933 L459.267,610.05 C459.181,610.479 458.802,610.79 458.365,610.79 L453.935,610.79 C453.498,610.79 453.119,610.479 453.033,610.05 L451.41,601.932 C451.237,601.07 450.595,600.378 449.749,600.141 C447.931,599.633 446.177,598.906 444.536,597.981 C443.77,597.549 442.825,597.585 442.094,598.073 L435.205,602.666 C434.841,602.908 434.353,602.86 434.044,602.551 L430.912,599.419 C430.603,599.11 430.555,598.621 430.797,598.258 L435.39,591.368 C435.878,590.637 435.913,589.693 435.482,588.927 C434.557,587.285 433.83,585.532 433.322,583.714 C433.085,582.867 432.393,582.225 431.53,582.053 L423.413,580.43 C422.984,580.344 422.673,579.965 422.673,579.527 L422.673,575.098 C422.673,574.661 422.984,574.282 423.413,574.196 L423.91,574.096 C425.175,573.843 425.995,572.613 425.742,571.348 C425.489,570.083 424.26,569.264 422.993,569.516 L422.496,569.615 C419.892,570.137 418.002,572.442 418.002,575.098 L418.002,579.528 C418.002,582.183 419.892,584.49 422.497,585.01 L429.251,586.361 C429.662,587.585 430.157,588.78 430.732,589.936 L426.91,595.667 C425.437,597.877 425.731,600.845 427.609,602.722 L430.741,605.854 C432.619,607.732 435.586,608.026 437.796,606.553 L443.527,602.732 C444.683,603.306 445.878,603.802 447.102,604.213 L448.453,610.967 C448.974,613.571 451.28,615.461 453.936,615.461 L458.365,615.461 C461.021,615.461 463.327,613.571 463.848,610.967 L465.199,604.213 C466.423,603.801 467.618,603.306 468.773,602.731 L474.505,606.553 C476.715,608.026 479.682,607.732 481.56,605.854 L484.692,602.722 C486.57,600.844 486.864,597.877 485.39,595.667 L481.569,589.935 C482.144,588.78 482.639,587.585 483.05,586.361 L489.804,585.01 C492.408,584.489 494.299,582.183 494.299,579.527 L494.299,575.098 C494.299,572.442 492.409,570.137 489.804,569.616 z" fill="#454545"/>
          <path d="M489.804,569.616 L483.05,568.265 C482.639,567.041 482.143,565.846 481.569,564.69 L485.39,558.959 C486.863,556.749 486.57,553.782 484.692,551.904 L481.56,548.772 C479.682,546.894 476.714,546.6 474.505,548.073 L468.773,551.894 C467.618,551.32 466.423,550.825 465.198,550.414 L463.848,543.66 C463.327,541.055 461.021,539.165 458.365,539.165 L453.936,539.165 C451.28,539.165 448.974,541.055 448.453,543.66 L447.102,550.414 C445.878,550.825 444.683,551.32 443.528,551.894 L437.796,548.073 C435.586,546.6 432.619,546.894 430.741,548.772 L427.609,551.904 C425.731,553.782 425.438,556.749 426.911,558.959 L430.732,564.69 C429.942,566.279 429.302,567.942 428.824,569.653 C428.476,570.895 429.201,572.184 430.444,572.532 C431.686,572.879 432.974,572.154 433.322,570.912 C433.831,569.094 434.558,567.34 435.482,565.699 C435.914,564.932 435.878,563.989 435.391,563.257 L430.798,556.368 C430.555,556.004 430.604,555.516 430.913,555.207 L434.044,552.075 C434.354,551.766 434.842,551.718 435.206,551.96 L442.095,556.553 C442.826,557.041 443.77,557.076 444.537,556.644 C446.178,555.72 447.932,554.993 449.749,554.485 C450.596,554.248 451.238,553.556 451.41,552.693 L453.034,544.576 C453.119,544.147 453.499,543.836 453.936,543.836 L458.365,543.836 C458.802,543.836 459.182,544.147 459.267,544.576 L460.891,552.694 C461.063,553.556 461.705,554.248 462.551,554.485 C464.369,554.994 466.123,555.721 467.764,556.645 C468.53,557.077 469.475,557.041 470.206,556.553 L477.095,551.961 C477.459,551.718 477.947,551.766 478.256,552.076 L481.388,555.207 C481.697,555.517 481.745,556.005 481.503,556.369 L476.91,563.258 C476.422,563.99 476.387,564.933 476.819,565.7 C477.743,567.341 478.47,569.095 478.979,570.912 C479.216,571.759 479.908,572.401 480.77,572.573 L488.887,574.196 C489.316,574.282 489.627,574.662 489.627,575.099 L489.627,579.528 C489.627,579.965 489.316,580.344 488.887,580.43 L480.769,582.054 C479.907,582.226 479.215,582.868 478.978,583.714 C478.47,585.532 477.743,587.286 476.818,588.927 C476.387,589.694 476.422,590.638 476.91,591.369 L481.503,598.258 C481.745,598.622 481.697,599.11 481.388,599.419 L478.256,602.551 C477.947,602.86 477.459,602.908 477.095,602.666 L470.206,598.073 C469.474,597.586 468.53,597.55 467.764,597.982 C466.122,598.906 464.369,599.633 462.551,600.142 C461.704,600.378 461.062,601.07 460.89,601.933 L459.267,610.05 C459.181,610.479 458.802,610.79 458.365,610.79 L453.935,610.79 C453.498,610.79 453.119,610.479 453.033,610.05 L451.41,601.932 C451.237,601.07 450.595,600.378 449.749,600.141 C447.931,599.633 446.177,598.906 444.536,597.981 C443.77,597.549 442.825,597.585 442.094,598.073 L435.205,602.666 C434.841,602.908 434.353,602.86 434.044,602.551 L430.912,599.419 C430.603,599.11 430.555,598.621 430.797,598.258 L435.39,591.368 C435.878,590.637 435.913,589.693 435.482,588.927 C434.557,587.285 433.83,585.532 433.322,583.714 C433.085,582.867 432.393,582.225 431.53,582.053 L423.413,580.43 C422.984,580.344 422.673,579.965 422.673,579.527 L422.673,575.098 C422.673,574.661 422.984,574.282 423.413,574.196 L423.91,574.096 C425.175,573.843 425.995,572.613 425.742,571.348 C425.489,570.083 424.26,569.264 422.993,569.516 L422.496,569.615 C419.892,570.137 418.002,572.442 418.002,575.098 L418.002,579.528 C418.002,582.183 419.892,584.49 422.497,585.01 L429.251,586.361 C429.662,587.585 430.157,588.78 430.732,589.936 L426.91,595.667 C425.437,597.877 425.731,600.845 427.609,602.722 L430.741,605.854 C432.619,607.732 435.586,608.026 437.796,606.553 L443.527,602.732 C444.683,603.306 445.878,603.802 447.102,604.213 L448.453,610.967 C448.974,613.571 451.28,615.461 453.936,615.461 L458.365,615.461 C461.021,615.461 463.327,613.571 463.848,610.967 L465.199,604.213 C466.423,603.801 467.618,603.306 468.773,602.731 L474.505,606.553 C476.715,608.026 479.682,607.732 481.56,605.854 L484.692,602.722 C486.57,600.844 486.864,597.877 485.39,595.667 L481.569,589.935 C482.144,588.78 482.639,587.585 483.05,586.361 L489.804,585.01 C492.408,584.489 494.299,582.183 494.299,579.527 L494.299,575.098 C494.299,572.442 492.409,570.137 489.804,569.616 z" fill-opacity="0" stroke="#454545" stroke-width="1"/>
        </g>
        <g>
          <path d="M456.151,568.905 C460.787,568.905 464.559,572.676 464.559,577.313 C464.559,578.603 465.605,579.648 466.894,579.648 C468.184,579.648 469.23,578.603 469.23,577.313 C469.23,570.101 463.362,564.233 456.15,564.233 C448.938,564.233 443.071,570.101 443.071,577.313 C443.071,584.525 448.938,590.393 456.15,590.393 C459.072,590.393 461.835,589.45 464.141,587.668 C465.162,586.88 465.35,585.413 464.562,584.392 C463.773,583.371 462.306,583.183 461.285,583.971 C459.804,585.116 458.028,585.721 456.15,585.721 C451.514,585.721 447.742,581.949 447.742,577.313 C447.742,572.676 451.514,568.905 456.151,568.905 z" fill="#454545"/>
          <path d="M456.151,568.905 C460.787,568.905 464.559,572.676 464.559,577.313 C464.559,578.603 465.605,579.648 466.894,579.648 C468.184,579.648 469.23,578.603 469.23,577.313 C469.23,570.101 463.362,564.233 456.15,564.233 C448.938,564.233 443.071,570.101 443.071,577.313 C443.071,584.525 448.938,590.393 456.15,590.393 C459.072,590.393 461.835,589.45 464.141,587.668 C465.162,586.88 465.35,585.413 464.562,584.392 C463.773,583.371 462.306,583.183 461.285,583.971 C459.804,585.116 458.028,585.721 456.15,585.721 C451.514,585.721 447.742,581.949 447.742,577.313 C447.742,572.676 451.514,568.905 456.151,568.905 z" fill-opacity="0" stroke="#454545" stroke-width="1"/>
        </g>
        <g>
          <path d="M417.44,524.372 C417.44,516.526 411.056,510.142 403.21,510.142 C395.364,510.142 388.98,516.526 388.98,524.372 C388.98,532.218 395.364,538.602 403.21,538.602 C411.056,538.602 417.44,532.218 417.44,524.372 z M393.651,524.372 C393.651,519.102 397.939,514.813 403.21,514.813 C408.48,514.813 412.768,519.102 412.768,524.372 C412.768,529.642 408.48,533.931 403.21,533.931 C397.939,533.931 393.651,529.642 393.651,524.372 z" fill="#454545"/>
          <path d="M417.44,524.372 C417.44,516.526 411.056,510.142 403.21,510.142 C395.364,510.142 388.98,516.526 388.98,524.372 C388.98,532.218 395.364,538.602 403.21,538.602 C411.056,538.602 417.44,532.218 417.44,524.372 z M393.651,524.372 C393.651,519.102 397.939,514.813 403.21,514.813 C408.48,514.813 412.768,519.102 412.768,524.372 C412.768,529.642 408.48,533.931 403.21,533.931 C397.939,533.931 393.651,529.642 393.651,524.372 z" fill-opacity="0" stroke="#454545" stroke-width="1"/>
        </g>
      </g>
      <path d="M325.133,486.534 L359.42,506.478" fill-opacity="0" stroke="#454545" stroke-width="5" stroke-linecap="round"/>
      <path d="M463.553,513.29 L515.542,486.534" fill-opacity="0" stroke="#454545" stroke-width="5" stroke-linecap="round"/>
      <path d="M420.338,651.432 L420.683,590.952" fill-opacity="0" stroke="#454545" stroke-width="5" stroke-linecap="round"/>
      <path d="M755.867,596.466 L660.662,651.432 L565.458,596.466 L565.458,486.534 L660.662,431.568 L755.867,486.534 z" fill-opacity="0" stroke="#454545" stroke-width="8" stroke-linejoin="round" stroke-miterlimit="1"/>
      <g id="gears">
        <g>
          <path d="M662.623,559.183 C662.07,558.019 660.677,557.522 659.512,558.075 C657.616,558.975 655.628,559.718 653.604,560.284 C652.757,560.521 652.115,561.213 651.943,562.076 L649.472,574.429 C649.229,575.649 648.149,576.534 646.905,576.534 L640.165,576.534 C638.921,576.534 637.841,575.649 637.597,574.429 L635.126,562.076 C634.954,561.213 634.312,560.521 633.465,560.284 C630.606,559.484 627.846,558.341 625.263,556.886 C624.496,556.454 623.552,556.49 622.821,556.977 L612.338,563.966 C611.303,564.656 609.913,564.518 609.033,563.639 L604.267,558.873 C603.387,557.993 603.25,556.603 603.94,555.568 L610.928,545.085 C611.416,544.353 611.452,543.409 611.02,542.643 C609.565,540.059 608.421,537.299 607.621,534.44 C607.384,533.593 606.692,532.952 605.83,532.779 L593.477,530.309 C592.257,530.065 591.371,528.985 591.371,527.741 L591.371,521.001 C591.371,519.757 592.257,518.677 593.477,518.433 L605.83,515.962 C606.692,515.79 607.384,515.148 607.621,514.302 C608.422,511.442 609.565,508.682 611.02,506.099 C611.452,505.333 611.416,504.389 610.928,503.657 L603.94,493.175 C603.25,492.14 603.388,490.75 604.268,489.87 L609.034,485.104 C609.913,484.225 611.303,484.087 612.338,484.777 L622.822,491.766 C623.553,492.254 624.497,492.289 625.263,491.857 C627.847,490.402 630.606,489.259 633.466,488.459 C634.313,488.222 634.954,487.53 635.127,486.667 L637.597,474.314 C637.841,473.094 638.921,472.209 640.165,472.209 L646.905,472.209 C648.149,472.209 649.229,473.094 649.473,474.314 L651.944,486.667 C652.116,487.53 652.758,488.222 653.604,488.459 C656.464,489.259 659.224,490.402 661.807,491.857 C662.573,492.289 663.517,492.254 664.249,491.766 L674.732,484.777 C675.767,484.087 677.157,484.225 678.037,485.104 L682.803,489.87 C683.683,490.75 683.82,492.14 683.13,493.175 L676.141,503.658 C675.653,504.39 675.618,505.334 676.05,506.1 C677.505,508.683 678.648,511.443 679.449,514.303 C679.685,515.149 680.377,515.791 681.24,515.963 L693.593,518.434 C694.813,518.678 695.698,519.758 695.698,521.002 L695.698,527.742 C695.698,528.986 694.813,530.066 693.593,530.31 L681.24,532.781 C680.377,532.953 679.685,533.595 679.449,534.442 C678.868,536.516 678.102,538.551 677.172,540.49 C676.614,541.653 677.104,543.048 678.267,543.606 C679.43,544.164 680.826,543.673 681.383,542.511 C682.223,540.761 682.943,538.941 683.533,537.086 L694.509,534.891 C697.904,534.211 700.368,531.205 700.368,527.742 L700.368,521.002 C700.368,517.539 697.904,514.533 694.508,513.853 L683.532,511.658 C682.812,509.392 681.9,507.189 680.806,505.08 L687.016,495.766 C688.936,492.884 688.554,489.016 686.105,486.567 L681.339,481.801 C678.89,479.352 675.021,478.97 672.14,480.89 L662.826,487.099 C660.717,486.006 658.514,485.094 656.248,484.374 L654.053,473.398 C653.374,470.003 650.368,467.539 646.905,467.539 L640.165,467.539 C636.702,467.539 633.696,470.003 633.016,473.399 L630.821,484.375 C628.555,485.095 626.351,486.007 624.243,487.1 L614.929,480.891 C612.048,478.97 608.179,479.353 605.73,481.802 L600.964,486.568 C598.516,489.017 598.133,492.885 600.054,495.766 L606.263,505.081 C605.17,507.189 604.257,509.392 603.537,511.659 L592.561,513.854 C589.166,514.533 586.701,517.539 586.701,521.002 L586.701,527.742 C586.701,531.205 589.166,534.211 592.562,534.891 L603.537,537.086 C604.257,539.352 605.17,541.555 606.263,543.664 L600.054,552.978 C598.133,555.86 598.516,559.728 600.964,562.177 L605.73,566.943 C608.179,569.392 612.048,569.774 614.929,567.854 L624.243,561.645 C626.352,562.738 628.555,563.65 630.822,564.37 L633.017,575.347 C633.696,578.741 636.702,581.206 640.165,581.206 L646.905,581.206 C650.368,581.206 653.374,578.742 654.053,575.346 L656.249,564.37 C658.048,563.798 659.815,563.103 661.515,562.296 C662.68,561.742 663.176,560.349 662.623,559.183 z" fill="#454545"/>
          <path d="M662.623,559.183 C662.07,558.019 660.677,557.522 659.512,558.075 C657.616,558.975 655.628,559.718 653.604,560.284 C652.757,560.521 652.115,561.213 651.943,562.076 L649.472,574.429 C649.229,575.649 648.149,576.534 646.905,576.534 L640.165,576.534 C638.921,576.534 637.841,575.649 637.597,574.429 L635.126,562.076 C634.954,561.213 634.312,560.521 633.465,560.284 C630.606,559.484 627.846,558.341 625.263,556.886 C624.496,556.454 623.552,556.49 622.821,556.977 L612.338,563.966 C611.303,564.656 609.913,564.518 609.033,563.639 L604.267,558.873 C603.387,557.993 603.25,556.603 603.94,555.568 L610.928,545.085 C611.416,544.353 611.452,543.409 611.02,542.643 C609.565,540.059 608.421,537.299 607.621,534.44 C607.384,533.593 606.692,532.952 605.83,532.779 L593.477,530.309 C592.257,530.065 591.371,528.985 591.371,527.741 L591.371,521.001 C591.371,519.757 592.257,518.677 593.477,518.433 L605.83,515.962 C606.692,515.79 607.384,515.148 607.621,514.302 C608.422,511.442 609.565,508.682 611.02,506.099 C611.452,505.333 611.416,504.389 610.928,503.657 L603.94,493.175 C603.25,492.14 603.388,490.75 604.268,489.87 L609.034,485.104 C609.913,484.225 611.303,484.087 612.338,484.777 L622.822,491.766 C623.553,492.254 624.497,492.289 625.263,491.857 C627.847,490.402 630.606,489.259 633.466,488.459 C634.313,488.222 634.954,487.53 635.127,486.667 L637.597,474.314 C637.841,473.094 638.921,472.209 640.165,472.209 L646.905,472.209 C648.149,472.209 649.229,473.094 649.473,474.314 L651.944,486.667 C652.116,487.53 652.758,488.222 653.604,488.459 C656.464,489.259 659.224,490.402 661.807,491.857 C662.573,492.289 663.517,492.254 664.249,491.766 L674.732,484.777 C675.767,484.087 677.157,484.225 678.037,485.104 L682.803,489.87 C683.683,490.75 683.82,492.14 683.13,493.175 L676.141,503.658 C675.653,504.39 675.618,505.334 676.05,506.1 C677.505,508.683 678.648,511.443 679.449,514.303 C679.685,515.149 680.377,515.791 681.24,515.963 L693.593,518.434 C694.813,518.678 695.698,519.758 695.698,521.002 L695.698,527.742 C695.698,528.986 694.813,530.066 693.593,530.31 L681.24,532.781 C680.377,532.953 679.685,533.595 679.449,534.442 C678.868,536.516 678.102,538.551 677.172,540.49 C676.614,541.653 677.104,543.048 678.267,543.606 C679.43,544.164 680.826,543.673 681.383,542.511 C682.223,540.761 682.943,538.941 683.533,537.086 L694.509,534.891 C697.904,534.211 700.368,531.205 700.368,527.742 L700.368,521.002 C700.368,517.539 697.904,514.533 694.508,513.853 L683.532,511.658 C682.812,509.392 681.9,507.189 680.806,505.08 L687.016,495.766 C688.936,492.884 688.554,489.016 686.105,486.567 L681.339,481.801 C678.89,479.352 675.021,478.97 672.14,480.89 L662.826,487.099 C660.717,486.006 658.514,485.094 656.248,484.374 L654.053,473.398 C653.374,470.003 650.368,467.539 646.905,467.539 L640.165,467.539 C636.702,467.539 633.696,470.003 633.016,473.399 L630.821,484.375 C628.555,485.095 626.351,486.007 624.243,487.1 L614.929,480.891 C612.048,478.97 608.179,479.353 605.73,481.802 L600.964,486.568 C598.516,489.017 598.133,492.885 600.054,495.766 L606.263,505.081 C605.17,507.189 604.257,509.392 603.537,511.659 L592.561,513.854 C589.166,514.533 586.701,517.539 586.701,521.002 L586.701,527.742 C586.701,531.205 589.166,534.211 592.562,534.891 L603.537,537.086 C604.257,539.352 605.17,541.555 606.263,543.664 L600.054,552.978 C598.133,555.86 598.516,559.728 600.964,562.177 L605.73,566.943 C608.179,569.392 612.048,569.774 614.929,567.854 L624.243,561.645 C626.352,562.738 628.555,563.65 630.822,564.37 L633.017,575.347 C633.696,578.741 636.702,581.206 640.165,581.206 L646.905,581.206 C650.368,581.206 653.374,578.742 654.053,575.346 L656.249,564.37 C658.048,563.798 659.815,563.103 661.515,562.296 C662.68,561.742 663.176,560.349 662.623,559.183 z" fill-opacity="0" stroke="#454545" stroke-width="1"/>
        </g>
        <g>
          <path d="M663.765,537.35 C664.106,537.525 664.47,537.608 664.829,537.608 C665.677,537.608 666.496,537.144 666.909,536.338 C668.793,532.664 669.789,528.527 669.789,524.372 C669.789,509.896 658.011,498.118 643.534,498.118 C636.647,498.118 630.139,500.765 625.209,505.572 C624.285,506.473 624.266,507.952 625.167,508.875 C626.067,509.798 627.546,509.818 628.469,508.917 C632.522,504.966 637.872,502.79 643.534,502.79 C655.435,502.79 665.117,512.472 665.117,524.373 C665.117,527.838 664.321,531.147 662.752,534.207 C662.164,535.354 662.617,536.761 663.765,537.35 z" fill="#454545"/>
          <path d="M663.765,537.35 C664.106,537.525 664.47,537.608 664.829,537.608 C665.677,537.608 666.496,537.144 666.909,536.338 C668.793,532.664 669.789,528.527 669.789,524.372 C669.789,509.896 658.011,498.118 643.534,498.118 C636.647,498.118 630.139,500.765 625.209,505.572 C624.285,506.473 624.266,507.952 625.167,508.875 C626.067,509.798 627.546,509.818 628.469,508.917 C632.522,504.966 637.872,502.79 643.534,502.79 C655.435,502.79 665.117,512.472 665.117,524.373 C665.117,527.838 664.321,531.147 662.752,534.207 C662.164,535.354 662.617,536.761 663.765,537.35 z" fill-opacity="0" stroke="#454545" stroke-width="1"/>
        </g>
        <g>
          <path d="M621.672,514.378 C620.452,513.959 619.123,514.607 618.704,515.827 C617.76,518.571 617.281,521.446 617.281,524.372 C617.281,538.849 629.059,550.626 643.535,550.626 C649.103,550.626 654.422,548.906 658.919,545.649 C659.964,544.893 660.198,543.432 659.441,542.388 C658.685,541.343 657.224,541.109 656.179,541.865 C652.485,544.541 648.113,545.955 643.535,545.955 C631.634,545.955 621.952,536.272 621.952,524.372 C621.952,521.964 622.345,519.6 623.12,517.346 C623.54,516.126 622.891,514.798 621.672,514.378 z" fill="#454545"/>
          <path d="M621.672,514.378 C620.452,513.959 619.123,514.607 618.704,515.827 C617.76,518.571 617.281,521.446 617.281,524.372 C617.281,538.849 629.059,550.626 643.535,550.626 C649.103,550.626 654.422,548.906 658.919,545.649 C659.964,544.893 660.198,543.432 659.441,542.388 C658.685,541.343 657.224,541.109 656.179,541.865 C652.485,544.541 648.113,545.955 643.535,545.955 C631.634,545.955 621.952,536.272 621.952,524.372 C621.952,521.964 622.345,519.6 623.12,517.346 C623.54,516.126 622.891,514.798 621.672,514.378 z" fill-opacity="0" stroke="#454545" stroke-width="1"/>
        </g>
        <g>
          <path d="M730.129,569.616 L723.375,568.265 C722.964,567.041 722.468,565.846 721.894,564.69 L725.715,558.959 C727.188,556.749 726.895,553.782 725.017,551.904 L721.885,548.772 C720.007,546.894 717.039,546.6 714.83,548.073 L709.098,551.894 C707.943,551.32 706.747,550.825 705.523,550.414 L704.173,543.66 C703.652,541.055 701.346,539.165 698.69,539.165 L694.261,539.165 C691.605,539.165 689.299,541.055 688.778,543.66 L687.427,550.414 C686.203,550.825 685.008,551.32 683.853,551.894 L678.121,548.073 C675.911,546.6 672.944,546.894 671.066,548.772 L667.934,551.904 C666.056,553.782 665.763,556.749 667.236,558.959 L671.057,564.69 C670.267,566.279 669.627,567.942 669.148,569.653 C668.801,570.895 669.526,572.184 670.768,572.532 C672.011,572.879 673.299,572.154 673.647,570.912 C674.156,569.094 674.883,567.34 675.807,565.699 C676.239,564.932 676.203,563.989 675.716,563.257 L671.123,556.368 C670.88,556.004 670.929,555.516 671.238,555.207 L674.369,552.075 C674.679,551.766 675.167,551.718 675.531,551.96 L682.42,556.553 C683.151,557.041 684.095,557.076 684.862,556.644 C686.503,555.72 688.257,554.993 690.074,554.485 C690.921,554.248 691.563,553.556 691.735,552.693 L693.358,544.576 C693.444,544.147 693.824,543.836 694.261,543.836 L698.69,543.836 C699.127,543.836 699.507,544.147 699.592,544.576 L701.216,552.694 C701.388,553.556 702.03,554.248 702.876,554.485 C704.694,554.994 706.448,555.721 708.089,556.645 C708.855,557.077 709.8,557.041 710.531,556.553 L717.42,551.961 C717.784,551.718 718.272,551.766 718.581,552.076 L721.713,555.207 C722.022,555.517 722.07,556.005 721.828,556.369 L717.235,563.258 C716.747,563.99 716.712,564.933 717.144,565.7 C718.068,567.341 718.795,569.095 719.304,570.912 C719.541,571.759 720.232,572.401 721.095,572.573 L729.212,574.196 C729.641,574.282 729.952,574.662 729.952,575.099 L729.952,579.528 C729.952,579.965 729.641,580.344 729.212,580.43 L721.094,582.054 C720.232,582.226 719.54,582.868 719.303,583.714 C718.795,585.532 718.068,587.286 717.143,588.927 C716.711,589.694 716.747,590.638 717.235,591.369 L721.828,598.258 C722.07,598.622 722.022,599.11 721.713,599.419 L718.581,602.551 C718.272,602.86 717.784,602.908 717.42,602.666 L710.531,598.073 C709.799,597.586 708.855,597.55 708.089,597.982 C706.447,598.906 704.694,599.633 702.876,600.142 C702.029,600.378 701.387,601.07 701.215,601.933 L699.592,610.05 C699.506,610.479 699.127,610.79 698.689,610.79 L694.26,610.79 C693.823,610.79 693.444,610.479 693.358,610.05 L691.734,601.932 C691.562,601.07 690.92,600.378 690.074,600.141 C688.256,599.633 686.502,598.906 684.861,597.981 C684.095,597.549 683.15,597.585 682.419,598.073 L675.53,602.666 C675.166,602.908 674.678,602.86 674.369,602.551 L671.237,599.419 C670.928,599.11 670.88,598.621 671.122,598.258 L675.715,591.368 C676.203,590.637 676.238,589.693 675.807,588.927 C674.882,587.285 674.155,585.532 673.647,583.714 C673.41,582.867 672.718,582.225 671.855,582.053 L663.738,580.43 C663.309,580.344 662.998,579.965 662.998,579.527 L662.998,575.098 C662.998,574.661 663.309,574.282 663.738,574.196 L664.235,574.096 C665.5,573.843 666.32,572.613 666.067,571.348 C665.814,570.083 664.585,569.264 663.318,569.516 L662.821,569.615 C660.217,570.137 658.327,572.442 658.327,575.098 L658.327,579.528 C658.327,582.183 660.217,584.49 662.822,585.01 L669.576,586.361 C669.987,587.585 670.482,588.78 671.057,589.936 L667.235,595.667 C665.762,597.877 666.056,600.845 667.934,602.722 L671.066,605.854 C672.944,607.732 675.911,608.026 678.121,606.553 L683.852,602.732 C685.008,603.306 686.203,603.802 687.427,604.213 L688.778,610.967 C689.299,613.571 691.605,615.461 694.261,615.461 L698.69,615.461 C701.346,615.461 703.652,613.571 704.173,610.967 L705.524,604.213 C706.748,603.801 707.943,603.306 709.098,602.731 L714.83,606.553 C717.04,608.026 720.007,607.732 721.885,605.854 L725.017,602.722 C726.895,600.844 727.189,597.877 725.715,595.667 L721.894,589.935 C722.469,588.78 722.964,587.585 723.375,586.361 L730.129,585.01 C732.733,584.489 734.624,582.183 734.624,579.527 L734.624,575.098 C734.624,572.442 732.734,570.137 730.129,569.616 z" fill="#454545"/>
          <path d="M730.129,569.616 L723.375,568.265 C722.964,567.041 722.468,565.846 721.894,564.69 L725.715,558.959 C727.188,556.749 726.895,553.782 725.017,551.904 L721.885,548.772 C720.007,546.894 717.039,546.6 714.83,548.073 L709.098,551.894 C707.943,551.32 706.747,550.825 705.523,550.414 L704.173,543.66 C703.652,541.055 701.346,539.165 698.69,539.165 L694.261,539.165 C691.605,539.165 689.299,541.055 688.778,543.66 L687.427,550.414 C686.203,550.825 685.008,551.32 683.853,551.894 L678.121,548.073 C675.911,546.6 672.944,546.894 671.066,548.772 L667.934,551.904 C666.056,553.782 665.763,556.749 667.236,558.959 L671.057,564.69 C670.267,566.279 669.627,567.942 669.148,569.653 C668.801,570.895 669.526,572.184 670.768,572.532 C672.011,572.879 673.299,572.154 673.647,570.912 C674.156,569.094 674.883,567.34 675.807,565.699 C676.239,564.932 676.203,563.989 675.716,563.257 L671.123,556.368 C670.88,556.004 670.929,555.516 671.238,555.207 L674.369,552.075 C674.679,551.766 675.167,551.718 675.531,551.96 L682.42,556.553 C683.151,557.041 684.095,557.076 684.862,556.644 C686.503,555.72 688.257,554.993 690.074,554.485 C690.921,554.248 691.563,553.556 691.735,552.693 L693.358,544.576 C693.444,544.147 693.824,543.836 694.261,543.836 L698.69,543.836 C699.127,543.836 699.507,544.147 699.592,544.576 L701.216,552.694 C701.388,553.556 702.03,554.248 702.876,554.485 C704.694,554.994 706.448,555.721 708.089,556.645 C708.855,557.077 709.8,557.041 710.531,556.553 L717.42,551.961 C717.784,551.718 718.272,551.766 718.581,552.076 L721.713,555.207 C722.022,555.517 722.07,556.005 721.828,556.369 L717.235,563.258 C716.747,563.99 716.712,564.933 717.144,565.7 C718.068,567.341 718.795,569.095 719.304,570.912 C719.541,571.759 720.232,572.401 721.095,572.573 L729.212,574.196 C729.641,574.282 729.952,574.662 729.952,575.099 L729.952,579.528 C729.952,579.965 729.641,580.344 729.212,580.43 L721.094,582.054 C720.232,582.226 719.54,582.868 719.303,583.714 C718.795,585.532 718.068,587.286 717.143,588.927 C716.711,589.694 716.747,590.638 717.235,591.369 L721.828,598.258 C722.07,598.622 722.022,599.11 721.713,599.419 L718.581,602.551 C718.272,602.86 717.784,602.908 717.42,602.666 L710.531,598.073 C709.799,597.586 708.855,597.55 708.089,597.982 C706.447,598.906 704.694,599.633 702.876,600.142 C702.029,600.378 701.387,601.07 701.215,601.933 L699.592,610.05 C699.506,610.479 699.127,610.79 698.689,610.79 L694.26,610.79 C693.823,610.79 693.444,610.479 693.358,610.05 L691.734,601.932 C691.562,601.07 690.92,600.378 690.074,600.141 C688.256,599.633 686.502,598.906 684.861,597.981 C684.095,597.549 683.15,597.585 682.419,598.073 L675.53,602.666 C675.166,602.908 674.678,602.86 674.369,602.551 L671.237,599.419 C670.928,599.11 670.88,598.621 671.122,598.258 L675.715,591.368 C676.203,590.637 676.238,589.693 675.807,588.927 C674.882,587.285 674.155,585.532 673.647,583.714 C673.41,582.867 672.718,582.225 671.855,582.053 L663.738,580.43 C663.309,580.344 662.998,579.965 662.998,579.527 L662.998,575.098 C662.998,574.661 663.309,574.282 663.738,574.196 L664.235,574.096 C665.5,573.843 666.32,572.613 666.067,571.348 C665.814,570.083 664.585,569.264 663.318,569.516 L662.821,569.615 C660.217,570.137 658.327,572.442 658.327,575.098 L658.327,579.528 C658.327,582.183 660.217,584.49 662.822,585.01 L669.576,586.361 C669.987,587.585 670.482,588.78 671.057,589.936 L667.235,595.667 C665.762,597.877 666.056,600.845 667.934,602.722 L671.066,605.854 C672.944,607.732 675.911,608.026 678.121,606.553 L683.852,602.732 C685.008,603.306 686.203,603.802 687.427,604.213 L688.778,610.967 C689.299,613.571 691.605,615.461 694.261,615.461 L698.69,615.461 C701.346,615.461 703.652,613.571 704.173,610.967 L705.524,604.213 C706.748,603.801 707.943,603.306 709.098,602.731 L714.83,606.553 C717.04,608.026 720.007,607.732 721.885,605.854 L725.017,602.722 C726.895,600.844 727.189,597.877 725.715,595.667 L721.894,589.935 C722.469,588.78 722.964,587.585 723.375,586.361 L730.129,585.01 C732.733,584.489 734.624,582.183 734.624,579.527 L734.624,575.098 C734.624,572.442 732.734,570.137 730.129,569.616 z" fill-opacity="0" stroke="#454545" stroke-width="1"/>
        </g>
        <g>
          <path d="M696.476,568.905 C701.112,568.905 704.884,572.676 704.884,577.313 C704.884,578.603 705.93,579.648 707.219,579.648 C708.509,579.648 709.555,578.603 709.555,577.313 C709.555,570.101 703.687,564.233 696.475,564.233 C689.263,564.233 683.396,570.101 683.396,577.313 C683.396,584.525 689.263,590.393 696.475,590.393 C699.396,590.393 702.16,589.45 704.466,587.668 C705.487,586.88 705.675,585.413 704.887,584.392 C704.098,583.371 702.631,583.183 701.61,583.971 C700.129,585.116 698.353,585.721 696.475,585.721 C691.839,585.721 688.067,581.949 688.067,577.313 C688.067,572.676 691.839,568.905 696.476,568.905 z" fill="#454545"/>
          <path d="M696.476,568.905 C701.112,568.905 704.884,572.676 704.884,577.313 C704.884,578.603 705.93,579.648 707.219,579.648 C708.509,579.648 709.555,578.603 709.555,577.313 C709.555,570.101 703.687,564.233 696.475,564.233 C689.263,564.233 683.396,570.101 683.396,577.313 C683.396,584.525 689.263,590.393 696.475,590.393 C699.396,590.393 702.16,589.45 704.466,587.668 C705.487,586.88 705.675,585.413 704.887,584.392 C704.098,583.371 702.631,583.183 701.61,583.971 C700.129,585.116 698.353,585.721 696.475,585.721 C691.839,585.721 688.067,581.949 688.067,577.313 C688.067,572.676 691.839,568.905 696.476,568.905 z" fill-opacity="0" stroke="#454545" stroke-width="1"/>
        </g>
        <g>
          <path d="M657.765,524.372 C657.765,516.526 651.381,510.142 643.535,510.142 C635.688,510.142 629.305,516.526 629.305,524.372 C629.305,532.218 635.688,538.602 643.535,538.602 C651.381,538.602 657.765,532.218 657.765,524.372 z M633.976,524.372 C633.976,519.102 638.264,514.813 643.535,514.813 C648.805,514.813 653.093,519.102 653.093,524.372 C653.093,529.642 648.805,533.931 643.535,533.931 C638.264,533.931 633.976,529.642 633.976,524.372 z" fill="#454545"/>
          <path d="M657.765,524.372 C657.765,516.526 651.381,510.142 643.535,510.142 C635.688,510.142 629.305,516.526 629.305,524.372 C629.305,532.218 635.688,538.602 643.535,538.602 C651.381,538.602 657.765,532.218 657.765,524.372 z M633.976,524.372 C633.976,519.102 638.264,514.813 643.535,514.813 C648.805,514.813 653.093,519.102 653.093,524.372 C653.093,529.642 648.805,533.931 643.535,533.931 C638.264,533.931 633.976,529.642 633.976,524.372 z" fill-opacity="0" stroke="#454545" stroke-width="1"/>
        </g>
      </g>
      <path d="M565.458,486.534 L599.745,506.478" fill-opacity="0" stroke="#454545" stroke-width="5" stroke-linecap="round"/>
      <path d="M703.878,513.29 L755.867,486.534" fill-opacity="0" stroke="#454545" stroke-width="5" stroke-linecap="round"/>
      <path d="M660.662,651.432 L661.008,590.952" fill-opacity="0" stroke="#454545" stroke-width="5" stroke-linecap="round"/>
    </g>
  </g>
</svg>
