<?xml version="1.0" encoding="UTF-8"?>
<!DOCTYPE svg PUBLIC "-//W3C//DTD SVG 1.1//EN" "http://www.w3.org/Graphics/SVG/1.1/DTD/svg11.dtd">
<svg version="1.1" xmlns="http://www.w3.org/2000/svg" xmlns:xlink="http://www.w3.org/1999/xlink" x="0" y="0" width="1080" height="1080" viewBox="0, 0, 1080, 1080">
  <g id="Livello_1">
    <path d="M474.165,728.242 C461.649,778.807 449.634,810.848 426.104,810.848 C422.599,810.848 420.597,809.346 420.597,806.843 C420.597,801.336 429.608,801.836 429.608,787.318 C429.608,778.807 421.598,774.301 414.088,774.301 C400.07,774.301 388.055,787.318 388.055,803.839 C388.055,815.854 400.571,826.368 420.597,826.368 C476.669,826.368 501.701,765.79 511.714,725.238 L603.331,357.766 C616.348,305.198 628.864,269.152 653.896,269.152 C657.401,269.152 659.403,270.654 659.403,273.157 C659.403,277.663 650.392,280.667 650.392,293.683 C650.392,302.194 658.402,305.699 665.912,305.699 C679.93,305.699 691.945,292.682 691.945,276.161 C691.945,264.146 679.429,253.632 659.403,253.632 C599.326,253.632 575.295,322.721 565.282,362.772 z" fill="#4D4D4D"/>
  </g>
</svg>
