<?xml version="1.0" encoding="UTF-8"?>
<!DOCTYPE svg PUBLIC "-//W3C//DTD SVG 1.1//EN" "http://www.w3.org/Graphics/SVG/1.1/DTD/svg11.dtd">
<svg version="1.1" xmlns="http://www.w3.org/2000/svg" xmlns:xlink="http://www.w3.org/1999/xlink" x="0" y="0" width="1080" height="1080" viewBox="0, 0, 1080, 1080">
  <g id="Livello_1">
    <path d="M698.903,592.823 C656.471,656.904 623.565,683.749 565.546,683.749 C525.712,683.749 493.671,668.162 469.424,636.121 C438.25,594.555 433.92,560.783 429.59,494.97 L696.305,494.97 C692.841,448.209 684.182,420.498 666.863,396.251 C639.152,357.283 600.184,336.5 546.495,336.5 C437.384,336.5 367.242,424.828 367.242,546.928 C367.242,666.43 429.59,743.5 531.773,743.5 C618.369,743.5 678.986,693.274 712.758,598.885 z M431.322,467.26 C440.848,402.313 474.62,367.674 523.114,367.674 C580.267,367.674 598.452,397.117 607.978,467.26 z" fill="#4D4D4D"/>
  </g>
</svg>
