<?xml version="1.0" encoding="UTF-8"?>
<!DOCTYPE svg PUBLIC "-//W3C//DTD SVG 1.1//EN" "http://www.w3.org/Graphics/SVG/1.1/DTD/svg11.dtd">
<svg version="1.1" xmlns="http://www.w3.org/2000/svg" xmlns:xlink="http://www.w3.org/1999/xlink" x="0" y="0" width="1080" height="1080" viewBox="0, 0, 1080, 1080">
  <g id="Livello_1">
    <path d="M785.994,336.467 L525.693,336.467 C429.695,336.467 370.62,378.927 330.005,452.771 L344.774,452.771 C385.389,403.85 419.542,403.85 473.079,403.85 L390.927,593.999 C378.927,620.767 362.312,647.536 322.621,658.612 C298.621,665.074 294.006,689.073 294.006,702.919 C294.006,725.072 317.083,743.533 341.082,743.533 C352.159,743.533 366.004,741.687 376.158,733.38 C453.694,675.227 482.309,516.462 524.77,403.85 L611.537,403.85 C588.46,481.386 560.769,546 539.538,611.537 C534,629.075 531.231,647.536 531.231,668.766 C531.231,704.765 546.923,737.995 583.845,737.995 C648.459,737.995 697.381,673.381 716.765,606.921 L701.996,606.921 C679.843,656.766 653.997,667.843 634.613,667.843 C614.306,667.843 599.537,644.767 599.537,623.536 C599.537,561.692 648.459,443.541 661.382,403.85 L764.764,403.85 z" fill="#4D4D4D"/>
  </g>
</svg>
