<?xml version="1.0" encoding="UTF-8"?>
<!DOCTYPE svg PUBLIC "-//W3C//DTD SVG 1.1//EN" "http://www.w3.org/Graphics/SVG/1.1/DTD/svg11.dtd">
<svg version="1.1" xmlns="http://www.w3.org/2000/svg" xmlns:xlink="http://www.w3.org/1999/xlink" x="0" y="0" width="1400" height="1100" viewBox="0, 0, 1400, 1100">
  <g id="Livello_1">
    <g>
      <path d="M119.648,120.7 L119.648,979.5" fill-opacity="0" stroke="#BABABA" stroke-width="15" stroke-linecap="round"/>
      <path d="M131.048,120.7 L119.648,90.3 L108.248,120.7 M119.648,120.7 L119.648,90.3" fill-opacity="0" stroke="#BABABA" stroke-width="15" stroke-opacity="1"/>
    </g>
    <path d="M401.648,357.5 L401.648,357.5" fill-opacity="0" stroke="#000000" stroke-width="7"/>
    <path d="M939.648,131.5 L939.648,131.5" fill-opacity="0" stroke="#000000" stroke-width="7"/>
    <path d="M89.648,455.5 C205.352,431.555 257.352,313.555 257.352,313.555 C257.352,313.555 354.501,99.134 517.352,275.555 C565.352,327.555 682.5,489.555 782.5,487.555 C921.648,484.772 974.223,377.555 1046.5,377.555 C1156.5,377.555 1212.5,639.555 1310.5,619.555" fill-opacity="0" stroke="#444444" stroke-width="20" stroke-linecap="round" stroke-linejoin="round"/>
    <path d="M219.648,370.736 L339.648,370.736 L339.648,949.5 L219.648,949.5 L219.648,370.736 z" fill-opacity="0" stroke="#3EA4F6" stroke-width="10" stroke-linejoin="round"/>
    <path d="M244.537,595.36 L314.76,554.741" fill-opacity="0" stroke="#44A6F3" stroke-width="8" stroke-opacity="0.503" stroke-linecap="round"/>
    <path d="M244.537,635.978 L314.76,595.36" fill-opacity="0" stroke="#44A6F3" stroke-width="8" stroke-opacity="0.503" stroke-linecap="round"/>
    <path d="M244.537,676.597 L314.76,635.978" fill-opacity="0" stroke="#44A6F3" stroke-width="8" stroke-opacity="0.503" stroke-linecap="round"/>
    <path d="M244.537,717.216 L314.76,676.597" fill-opacity="0" stroke="#44A6F3" stroke-width="8" stroke-opacity="0.503" stroke-linecap="round"/>
    <path d="M244.537,757.834 L314.76,717.216" fill-opacity="0" stroke="#44A6F3" stroke-width="8" stroke-opacity="0.503" stroke-linecap="round"/>
    <path d="M244.537,798.453 L314.76,757.834" fill-opacity="0" stroke="#44A6F3" stroke-width="8" stroke-opacity="0.503" stroke-linecap="round"/>
    <path d="M244.537,839.071 L314.76,798.453" fill-opacity="0" stroke="#44A6F3" stroke-width="8" stroke-opacity="0.503" stroke-linecap="round"/>
    <path d="M244.537,879.69 L314.76,839.071" fill-opacity="0" stroke="#44A6F3" stroke-width="8" stroke-opacity="0.503" stroke-linecap="round"/>
    <path d="M244.537,920.309 L314.76,879.69" fill-opacity="0" stroke="#44A6F3" stroke-width="8" stroke-opacity="0.503" stroke-linecap="round"/>
    <path d="M244.537,473.504 L314.76,432.885" fill-opacity="0" stroke="#44A6F3" stroke-width="8" stroke-opacity="0.503" stroke-linecap="round"/>
    <path d="M244.537,514.123 L314.76,473.504" fill-opacity="0" stroke="#44A6F3" stroke-width="8" stroke-opacity="0.503" stroke-linecap="round"/>
    <path d="M244.537,554.741 L314.76,514.123" fill-opacity="0" stroke="#44A6F3" stroke-width="8" stroke-opacity="0.503" stroke-linecap="round"/>
    <path d="M364.537,595.36 L434.76,554.741" fill-opacity="0" stroke="#44A6F3" stroke-width="8" stroke-opacity="0.503" stroke-linecap="round"/>
    <path d="M364.537,635.978 L434.76,595.36" fill-opacity="0" stroke="#44A6F3" stroke-width="8" stroke-opacity="0.503" stroke-linecap="round"/>
    <path d="M364.537,676.597 L434.76,635.978" fill-opacity="0" stroke="#44A6F3" stroke-width="8" stroke-opacity="0.503" stroke-linecap="round"/>
    <path d="M364.537,717.216 L434.76,676.597" fill-opacity="0" stroke="#44A6F3" stroke-width="8" stroke-opacity="0.503" stroke-linecap="round"/>
    <path d="M364.537,757.834 L434.76,717.216" fill-opacity="0" stroke="#44A6F3" stroke-width="8" stroke-opacity="0.503" stroke-linecap="round"/>
    <path d="M364.537,798.453 L434.76,757.834" fill-opacity="0" stroke="#44A6F3" stroke-width="8" stroke-opacity="0.503" stroke-linecap="round"/>
    <path d="M364.537,839.071 L434.76,798.453" fill-opacity="0" stroke="#44A6F3" stroke-width="8" stroke-opacity="0.503" stroke-linecap="round"/>
    <path d="M364.537,879.69 L434.76,839.071" fill-opacity="0" stroke="#44A6F3" stroke-width="8" stroke-opacity="0.503" stroke-linecap="round"/>
    <path d="M364.537,920.309 L434.76,879.69" fill-opacity="0" stroke="#44A6F3" stroke-width="8" stroke-opacity="0.503" stroke-linecap="round"/>
    <path d="M364.537,473.504 L434.76,432.885" fill-opacity="0" stroke="#44A6F3" stroke-width="8" stroke-opacity="0.503" stroke-linecap="round"/>
    <path d="M364.537,514.123 L434.76,473.504" fill-opacity="0" stroke="#44A6F3" stroke-width="8" stroke-opacity="0.503" stroke-linecap="round"/>
    <path d="M364.537,554.741 L434.76,514.123" fill-opacity="0" stroke="#44A6F3" stroke-width="8" stroke-opacity="0.503" stroke-linecap="round"/>
    <path d="M484.537,595.36 L554.76,554.741" fill-opacity="0" stroke="#44A6F3" stroke-width="8" stroke-opacity="0.503" stroke-linecap="round"/>
    <path d="M484.537,635.978 L554.76,595.36" fill-opacity="0" stroke="#44A6F3" stroke-width="8" stroke-opacity="0.503" stroke-linecap="round"/>
    <path d="M484.537,676.597 L554.76,635.978" fill-opacity="0" stroke="#44A6F3" stroke-width="8" stroke-opacity="0.503" stroke-linecap="round"/>
    <path d="M484.537,717.216 L554.76,676.597" fill-opacity="0" stroke="#44A6F3" stroke-width="8" stroke-opacity="0.503" stroke-linecap="round"/>
    <path d="M484.537,757.834 L554.76,717.216" fill-opacity="0" stroke="#44A6F3" stroke-width="8" stroke-opacity="0.503" stroke-linecap="round"/>
    <path d="M484.537,798.453 L554.76,757.834" fill-opacity="0" stroke="#44A6F3" stroke-width="8" stroke-opacity="0.503" stroke-linecap="round"/>
    <path d="M484.537,839.071 L554.76,798.453" fill-opacity="0" stroke="#44A6F3" stroke-width="8" stroke-opacity="0.503" stroke-linecap="round"/>
    <path d="M484.537,879.69 L554.76,839.071" fill-opacity="0" stroke="#44A6F3" stroke-width="8" stroke-opacity="0.503" stroke-linecap="round"/>
    <path d="M484.537,920.309 L554.76,879.69" fill-opacity="0" stroke="#44A6F3" stroke-width="8" stroke-opacity="0.503" stroke-linecap="round"/>
    <path d="M484.537,473.504 L554.76,432.885" fill-opacity="0" stroke="#44A6F3" stroke-width="8" stroke-opacity="0.503" stroke-linecap="round"/>
    <path d="M484.537,514.123 L554.76,473.504" fill-opacity="0" stroke="#44A6F3" stroke-width="8" stroke-opacity="0.503" stroke-linecap="round"/>
    <path d="M484.537,554.741 L554.76,514.123" fill-opacity="0" stroke="#44A6F3" stroke-width="8" stroke-opacity="0.503" stroke-linecap="round"/>
    <path d="M604.537,595.36 L674.76,554.741" fill-opacity="0" stroke="#44A6F3" stroke-width="8" stroke-opacity="0.503" stroke-linecap="round"/>
    <path d="M604.537,635.978 L674.76,595.36" fill-opacity="0" stroke="#44A6F3" stroke-width="8" stroke-opacity="0.503" stroke-linecap="round"/>
    <path d="M604.537,676.597 L674.76,635.978" fill-opacity="0" stroke="#44A6F3" stroke-width="8" stroke-opacity="0.503" stroke-linecap="round"/>
    <path d="M604.537,717.216 L674.76,676.597" fill-opacity="0" stroke="#44A6F3" stroke-width="8" stroke-opacity="0.503" stroke-linecap="round"/>
    <path d="M604.537,757.834 L674.76,717.216" fill-opacity="0" stroke="#44A6F3" stroke-width="8" stroke-opacity="0.503" stroke-linecap="round"/>
    <path d="M604.537,798.453 L674.76,757.834" fill-opacity="0" stroke="#44A6F3" stroke-width="8" stroke-opacity="0.503" stroke-linecap="round"/>
    <path d="M604.537,839.071 L674.76,798.453" fill-opacity="0" stroke="#44A6F3" stroke-width="8" stroke-opacity="0.503" stroke-linecap="round"/>
    <path d="M604.537,879.69 L674.76,839.071" fill-opacity="0" stroke="#44A6F3" stroke-width="8" stroke-opacity="0.503" stroke-linecap="round"/>
    <path d="M604.537,920.309 L674.76,879.69" fill-opacity="0" stroke="#44A6F3" stroke-width="8" stroke-opacity="0.503" stroke-linecap="round"/>
    <path d="M604.537,514.123 L674.76,473.504" fill-opacity="0" stroke="#44A6F3" stroke-width="8" stroke-opacity="0.503" stroke-linecap="round"/>
    <path d="M604.537,554.741 L674.76,514.123" fill-opacity="0" stroke="#44A6F3" stroke-width="8" stroke-opacity="0.503" stroke-linecap="round"/>
    <path d="M724.537,595.36 L794.76,554.741" fill-opacity="0" stroke="#44A6F3" stroke-width="8" stroke-opacity="0.503" stroke-linecap="round"/>
    <path d="M724.537,635.978 L794.76,595.36" fill-opacity="0" stroke="#44A6F3" stroke-width="8" stroke-opacity="0.503" stroke-linecap="round"/>
    <path d="M724.537,676.597 L794.76,635.978" fill-opacity="0" stroke="#44A6F3" stroke-width="8" stroke-opacity="0.503" stroke-linecap="round"/>
    <path d="M724.537,717.216 L794.76,676.597" fill-opacity="0" stroke="#44A6F3" stroke-width="8" stroke-opacity="0.503" stroke-linecap="round"/>
    <path d="M724.537,757.834 L794.76,717.216" fill-opacity="0" stroke="#44A6F3" stroke-width="8" stroke-opacity="0.503" stroke-linecap="round"/>
    <path d="M724.537,798.453 L794.76,757.834" fill-opacity="0" stroke="#44A6F3" stroke-width="8" stroke-opacity="0.503" stroke-linecap="round"/>
    <path d="M724.537,839.071 L794.76,798.453" fill-opacity="0" stroke="#44A6F3" stroke-width="8" stroke-opacity="0.503" stroke-linecap="round"/>
    <path d="M724.537,879.69 L794.76,839.071" fill-opacity="0" stroke="#44A6F3" stroke-width="8" stroke-opacity="0.503" stroke-linecap="round"/>
    <path d="M724.537,920.309 L794.76,879.69" fill-opacity="0" stroke="#44A6F3" stroke-width="8" stroke-opacity="0.503" stroke-linecap="round"/>
    <path d="M724.537,554.741 L794.76,514.123" fill-opacity="0" stroke="#44A6F3" stroke-width="8" stroke-opacity="0.503" stroke-linecap="round"/>
    <path d="M844.537,595.36 L914.76,554.741" fill-opacity="0" stroke="#44A6F3" stroke-width="8" stroke-opacity="0.503" stroke-linecap="round"/>
    <path d="M844.537,635.978 L914.76,595.36" fill-opacity="0" stroke="#44A6F3" stroke-width="8" stroke-opacity="0.503" stroke-linecap="round"/>
    <path d="M844.537,676.597 L914.76,635.978" fill-opacity="0" stroke="#44A6F3" stroke-width="8" stroke-opacity="0.503" stroke-linecap="round"/>
    <path d="M844.537,717.216 L914.76,676.597" fill-opacity="0" stroke="#44A6F3" stroke-width="8" stroke-opacity="0.503" stroke-linecap="round"/>
    <path d="M844.537,757.834 L914.76,717.216" fill-opacity="0" stroke="#44A6F3" stroke-width="8" stroke-opacity="0.503" stroke-linecap="round"/>
    <path d="M844.537,798.453 L914.76,757.834" fill-opacity="0" stroke="#44A6F3" stroke-width="8" stroke-opacity="0.503" stroke-linecap="round"/>
    <path d="M844.537,839.071 L914.76,798.453" fill-opacity="0" stroke="#44A6F3" stroke-width="8" stroke-opacity="0.503" stroke-linecap="round"/>
    <path d="M844.537,879.69 L914.76,839.071" fill-opacity="0" stroke="#44A6F3" stroke-width="8" stroke-opacity="0.503" stroke-linecap="round"/>
    <path d="M844.537,920.309 L914.76,879.69" fill-opacity="0" stroke="#44A6F3" stroke-width="8" stroke-opacity="0.503" stroke-linecap="round"/>
    <path d="M844.537,514.123 L864.984,502.297" fill-opacity="0" stroke="#44A6F3" stroke-width="8" stroke-opacity="0.503" stroke-linecap="round"/>
    <path d="M844.537,554.741 L914.76,514.123" fill-opacity="0" stroke="#44A6F3" stroke-width="8" stroke-opacity="0.503" stroke-linecap="round"/>
    <path d="M964.537,595.36 L1034.76,554.741" fill-opacity="0" stroke="#44A6F3" stroke-width="8" stroke-opacity="0.503" stroke-linecap="round"/>
    <path d="M964.537,635.978 L1034.76,595.36" fill-opacity="0" stroke="#44A6F3" stroke-width="8" stroke-opacity="0.503" stroke-linecap="round"/>
    <path d="M964.537,676.597 L1034.76,635.978" fill-opacity="0" stroke="#44A6F3" stroke-width="8" stroke-opacity="0.503" stroke-linecap="round"/>
    <path d="M964.537,717.216 L1034.76,676.597" fill-opacity="0" stroke="#44A6F3" stroke-width="8" stroke-opacity="0.503" stroke-linecap="round"/>
    <path d="M964.537,757.834 L1034.76,717.216" fill-opacity="0" stroke="#44A6F3" stroke-width="8" stroke-opacity="0.503" stroke-linecap="round"/>
    <path d="M964.537,798.453 L1034.76,757.834" fill-opacity="0" stroke="#44A6F3" stroke-width="8" stroke-opacity="0.503" stroke-linecap="round"/>
    <path d="M964.537,839.071 L1034.76,798.453" fill-opacity="0" stroke="#44A6F3" stroke-width="8" stroke-opacity="0.503" stroke-linecap="round"/>
    <path d="M964.537,879.69 L1034.76,839.071" fill-opacity="0" stroke="#44A6F3" stroke-width="8" stroke-opacity="0.503" stroke-linecap="round"/>
    <path d="M964.537,920.309 L1034.76,879.69" fill-opacity="0" stroke="#44A6F3" stroke-width="8" stroke-opacity="0.503" stroke-linecap="round"/>
    <path d="M964.537,473.504 L1005.034,450.113" fill-opacity="0" stroke="#44A6F3" stroke-width="8" stroke-opacity="0.503" stroke-linecap="round"/>
    <path d="M964.537,514.123 L1034.76,473.504" fill-opacity="0" stroke="#44A6F3" stroke-width="8" stroke-opacity="0.503" stroke-linecap="round"/>
    <path d="M964.537,554.741 L1034.76,514.123" fill-opacity="0" stroke="#44A6F3" stroke-width="8" stroke-opacity="0.503" stroke-linecap="round"/>
    <path d="M1084.537,595.36 L1154.76,554.741" fill-opacity="0" stroke="#44A6F3" stroke-width="8" stroke-opacity="0.503" stroke-linecap="round"/>
    <path d="M1084.537,635.978 L1154.76,595.36" fill-opacity="0" stroke="#44A6F3" stroke-width="8" stroke-opacity="0.503" stroke-linecap="round"/>
    <path d="M1084.537,676.597 L1154.76,635.978" fill-opacity="0" stroke="#44A6F3" stroke-width="8" stroke-opacity="0.503" stroke-linecap="round"/>
    <path d="M1084.537,717.216 L1154.76,676.597" fill-opacity="0" stroke="#44A6F3" stroke-width="8" stroke-opacity="0.503" stroke-linecap="round"/>
    <path d="M1084.537,757.834 L1154.76,717.216" fill-opacity="0" stroke="#44A6F3" stroke-width="8" stroke-opacity="0.503" stroke-linecap="round"/>
    <path d="M1084.537,798.453 L1154.76,757.834" fill-opacity="0" stroke="#44A6F3" stroke-width="8" stroke-opacity="0.503" stroke-linecap="round"/>
    <path d="M1084.537,839.071 L1154.76,798.453" fill-opacity="0" stroke="#44A6F3" stroke-width="8" stroke-opacity="0.503" stroke-linecap="round"/>
    <path d="M1084.537,879.69 L1154.76,839.071" fill-opacity="0" stroke="#44A6F3" stroke-width="8" stroke-opacity="0.503" stroke-linecap="round"/>
    <path d="M1084.537,920.309 L1154.76,879.69" fill-opacity="0" stroke="#44A6F3" stroke-width="8" stroke-opacity="0.503" stroke-linecap="round"/>
    <path d="M1084.536,473.504 L1110.305,458.645" fill-opacity="0" stroke="#44A6F3" stroke-width="8" stroke-opacity="0.503" stroke-linecap="round"/>
    <path d="M1084.536,514.122 L1133.505,485.906" fill-opacity="0" stroke="#44A6F3" stroke-width="8" stroke-opacity="0.503" stroke-linecap="round"/>
    <path d="M1084.537,554.741 L1154.76,514.123" fill-opacity="0" stroke="#44A6F3" stroke-width="8" stroke-opacity="0.503" stroke-linecap="round"/>
    <path d="M724.537,514.123 L750.306,499.264" fill-opacity="0" stroke="#44A6F3" stroke-width="8" stroke-opacity="0.503" stroke-linecap="round"/>
    <path d="M604.538,432.885 L619.036,424.525" fill-opacity="0" stroke="#44A6F3" stroke-width="8" stroke-opacity="0.503" stroke-linecap="round"/>
    <path d="M484.537,351.648 L525.732,327.867" fill-opacity="0" stroke="#44A6F3" stroke-width="8" stroke-opacity="0.503" stroke-linecap="round"/>
    <path d="M484.537,392.267 L554.76,351.648" fill-opacity="0" stroke="#44A6F3" stroke-width="8" stroke-opacity="0.503" stroke-linecap="round"/>
    <path d="M484.537,432.885 L554.76,392.267" fill-opacity="0" stroke="#44A6F3" stroke-width="8" stroke-opacity="0.503" stroke-linecap="round"/>
    <path d="M484.537,311.03 L503.037,300.329" fill-opacity="0" stroke="#44A6F3" stroke-width="8" stroke-opacity="0.503" stroke-linecap="round"/>
    <path d="M364.537,392.267 L434.76,351.648" fill-opacity="0" stroke="#44A6F3" stroke-width="8" stroke-opacity="0.503" stroke-linecap="round"/>
    <path d="M364.537,432.885 L434.76,392.267" fill-opacity="0" stroke="#44A6F3" stroke-width="8" stroke-opacity="0.503" stroke-linecap="round"/>
    <path d="M244.537,432.885 L314.76,392.267" fill-opacity="0" stroke="#44A6F3" stroke-width="8" stroke-opacity="0.503" stroke-linecap="round"/>
    <path d="M364.537,351.648 L434.76,311.03" fill-opacity="0" stroke="#44A6F3" stroke-width="8" stroke-opacity="0.503" stroke-linecap="round"/>
    <path d="M364.537,311.03 L434.76,270.411" fill-opacity="0" stroke="#44A6F3" stroke-width="8" stroke-opacity="0.503" stroke-linecap="round"/>
    <path d="M364.537,270.411 L413.793,241.992" fill-opacity="0" stroke="#44A6F3" stroke-width="8" stroke-opacity="0.503" stroke-linecap="round"/>
    <path d="M296.26,931.009 L314.76,920.309" fill-opacity="0" stroke="#44A6F3" stroke-width="8" stroke-opacity="0.503" stroke-linecap="round"/>
    <path d="M418.26,931.009 L436.76,920.309" fill-opacity="0" stroke="#44A6F3" stroke-width="8" stroke-opacity="0.503" stroke-linecap="round"/>
    <path d="M536.26,931.009 L554.76,920.309" fill-opacity="0" stroke="#44A6F3" stroke-width="8" stroke-opacity="0.503" stroke-linecap="round"/>
    <path d="M656.26,931.009 L674.76,920.309" fill-opacity="0" stroke="#44A6F3" stroke-width="8" stroke-opacity="0.503" stroke-linecap="round"/>
    <path d="M776.26,931.009 L794.76,920.309" fill-opacity="0" stroke="#44A6F3" stroke-width="8" stroke-opacity="0.503" stroke-linecap="round"/>
    <path d="M896.26,931.009 L914.76,920.309" fill-opacity="0" stroke="#44A6F3" stroke-width="8" stroke-opacity="0.503" stroke-linecap="round"/>
    <path d="M1016.26,931.009 L1034.76,920.309" fill-opacity="0" stroke="#44A6F3" stroke-width="8" stroke-opacity="0.503" stroke-linecap="round"/>
    <path d="M1136.26,931.009 L1154.76,920.309" fill-opacity="0" stroke="#44A6F3" stroke-width="8" stroke-opacity="0.503" stroke-linecap="round"/>
    <path d="M898.768,355.393 L905.262,355.393 L905.262,309.982 L916.15,309.982 L916.15,304.611 L905.213,304.611 L905.213,298.313 C905.213,292.648 907.801,290.158 912.684,290.158 C914.051,290.158 915.418,290.305 916.443,290.5 L916.443,285.178 C915.369,284.982 913.514,284.787 911.756,284.787 C903.26,284.787 898.768,288.986 898.768,298.166 L898.768,304.611 L891.688,304.611 L891.688,309.982 L898.768,309.982 z" fill="#797979"/>
    <path d="M928.309,327.609 C928.309,344.357 932.752,358.664 941.834,370.236 L947.449,370.236 C940.076,361.252 934.9,343.43 934.9,327.609 C934.9,311.789 940.076,293.918 947.449,284.934 L941.834,284.934 C932.752,296.506 928.309,310.861 928.309,327.609 z" fill="#797979"/>
    <path d="M972.059,334.543 L985.975,355.393 L993.25,355.393 L975.672,329.611 L993.397,304.611 L986.121,304.611 L972.254,324.973 L972.107,324.973 L958.191,304.611 L950.867,304.611 L968.494,329.855 L950.672,355.393 L957.898,355.393 L971.912,334.543 z" fill="#797979"/>
    <path d="M1015.76,327.609 C1015.76,307.199 1009.266,293.918 1002.234,284.934 L996.619,284.934 C1002.137,291.77 1009.168,307.541 1009.168,327.609 C1009.168,347.678 1002.137,363.4 996.619,370.236 L1002.234,370.236 C1009.266,361.252 1015.76,348.02 1015.76,327.609 z" fill="#797979"/>
    <path d="M216.636,1003.158 C212.505,1003.158 209.663,1000.873 209.663,997.562 C209.663,994.193 212.329,992.113 217.134,991.791 L226.158,991.176 L226.158,994.545 C226.158,999.379 221.968,1003.158 216.636,1003.158 z M215.845,1006.498 C220.386,1006.498 224.546,1003.979 226.245,1000.199 L226.333,1000.199 L226.333,1006 L230.025,1006 L230.025,985.141 C230.025,978.93 225.659,975.033 218.716,975.033 C211.773,975.033 207.29,978.9 206.851,984.35 L210.601,984.35 C211.275,980.658 214.146,978.461 218.628,978.461 C223.374,978.461 226.158,981.098 226.158,985.492 L226.158,988.129 L216.665,988.715 C209.634,989.184 205.738,992.348 205.738,997.562 C205.738,1002.895 209.839,1006.498 215.845,1006.498 z" fill="#797979"/>
    <path d="M1184.318,1006.498 C1191.994,1006.498 1197.209,1000.258 1197.209,990.766 C1197.209,981.273 1191.994,975.033 1184.348,975.033 C1179.572,975.033 1175.646,977.699 1173.918,981.889 L1173.83,981.889 L1173.83,963.725 L1169.933,963.725 L1169.933,1006 L1173.654,1006 L1173.654,999.555 L1173.742,999.555 C1175.558,1003.832 1179.455,1006.498 1184.318,1006.498 z M1183.586,978.461 C1189.445,978.461 1193.224,983.324 1193.224,990.766 C1193.224,998.236 1189.445,1003.07 1183.586,1003.07 C1177.844,1003.07 1173.801,998.09 1173.801,990.766 C1173.801,983.471 1177.873,978.461 1183.586,978.461 z" fill="#797979"/>
    <path d="M506.141,1006 L510.037,1006 L510.037,988.07 C510.037,982.328 513.582,978.49 519.06,978.49 C524.217,978.49 527.176,981.684 527.176,986.957 L527.176,1006 L531.072,1006 L531.072,986.312 C531.072,979.486 526.853,975.033 520.174,975.033 C515.31,975.033 511.678,977.406 510.125,981.156 L510.037,981.156 L510.037,963.725 L506.141,963.725 z" fill="#797979"/>
    <path d="M459.648,964.691 L459.648,1022.5" fill-opacity="0" stroke="#797979" stroke-width="4" stroke-linecap="round"/>
    <path d="M467.073,993.593 L484.387,983.6" fill-opacity="0" stroke="#797979" stroke-width="4" stroke-linecap="round"/>
    <path d="M467.225,993.593 L484.537,1003.591" fill-opacity="0" stroke="#797979" stroke-width="4" stroke-linecap="round"/>
    <path d="M579.648,1022.5 L579.648,964.691" fill-opacity="0" stroke="#797979" stroke-width="4" stroke-linecap="round"/>
    <path d="M572.224,993.598 L554.91,1003.591" fill-opacity="0" stroke="#797979" stroke-width="4" stroke-linecap="round"/>
    <path d="M572.072,993.598 L554.76,983.6" fill-opacity="0" stroke="#797979" stroke-width="4" stroke-linecap="round"/>
    <path d="M1231.897,925.992 L1238.576,936 L1242.069,936 L1233.631,923.625 L1242.139,911.625 L1238.647,911.625 L1231.99,921.398 L1231.92,921.398 L1225.24,911.625 L1221.725,911.625 L1230.186,923.742 L1221.631,936 L1225.1,936 L1231.826,925.992 z" fill="#BABABA"/>
    <path d="M139.43,158.938 C143.437,158.938 145.172,157.344 147.305,151.602 L156.891,125.75 L153.633,125.75 L146.203,147.031 L146.133,147.031 L138.726,125.75 L135.398,125.75 L144.539,150.289 L143.883,152.117 C142.805,155.164 141.586,156.289 139.359,156.289 C138.867,156.289 138.258,156.242 137.883,156.148 L137.883,158.797 C138.234,158.867 138.937,158.938 139.43,158.938 z" fill="#BABABA"/>
    <path d="M339.648,219.414 L459.648,219.414 L459.648,949.5 L339.648,949.5 L339.648,219.414 z" fill-opacity="0" stroke="#3EA4F6" stroke-width="10" stroke-linejoin="round"/>
    <path d="M459.106,226.161 L579.106,226.161 L579.106,949.5 L459.106,949.5 L459.106,226.161 z" fill-opacity="0" stroke="#3EA4F6" stroke-width="10" stroke-linejoin="round"/>
    <path d="M579.648,347.122 L699.648,347.122 L699.648,949.5 L579.648,949.5 L579.648,347.122 z" fill-opacity="0" stroke="#3EA4F6" stroke-width="10" stroke-linejoin="round"/>
    <path d="M699.648,458.645 L819.648,458.645 L819.648,949.5 L699.648,949.5 L699.648,458.645 z" fill-opacity="0" stroke="#3EA4F6" stroke-width="10" stroke-linejoin="round"/>
    <path d="M819.648,485.906 L939.648,485.906 L939.648,949.5 L819.648,949.5 L819.648,485.906 z" fill-opacity="0" stroke="#3EA4F6" stroke-width="10" stroke-linejoin="round"/>
    <path d="M939.648,432.885 L1059.648,432.885 L1059.648,949.5 L939.648,949.5 L939.648,432.885 z" fill-opacity="0" stroke="#3EA4F6" stroke-width="10" stroke-linejoin="round"/>
    <path d="M1059.648,378.789 L1179.648,378.789 L1179.648,949.5 L1059.648,949.5 L1059.648,378.789 z" fill-opacity="0" stroke="#3EA4F6" stroke-width="10" stroke-linejoin="round"/>
    <g>
      <path d="M1248.448,949.5 L89.648,949.5" fill-opacity="0" stroke="#BABABA" stroke-width="15" stroke-linecap="round"/>
      <path d="M1248.448,960.9 L1278.848,949.5 L1248.448,938.1 M1248.448,949.5 L1278.848,949.5" fill-opacity="0" stroke="#BABABA" stroke-width="15" stroke-opacity="1"/>
    </g>
    <path d="M244.537,392.267 L244.537,392.267" fill-opacity="0" stroke="#44A6F3" stroke-width="8" stroke-opacity="0.503" stroke-linecap="round"/>
    <path d="M364.537,237.828 L364.537,237.828" fill-opacity="0" stroke="#44A6F3" stroke-width="8" stroke-opacity="0.503" stroke-linecap="round"/>
    <path d="M484.387,274.6 L484.387,274.6" fill-opacity="0" stroke="#44A6F3" stroke-width="8" stroke-opacity="0.503" stroke-linecap="round"/>
    <path d="M604.537,473.504 L645.074,450.113" fill-opacity="0" stroke="#44A6F3" stroke-width="8" stroke-opacity="0.503" stroke-linecap="round"/>
    <path d="M662.753,399.209 L674.76,392.267" fill-opacity="0" stroke="#44A6F3" stroke-width="8" stroke-opacity="0.503" stroke-linecap="round"/>
    <path d="M635.154,373.023 L647.161,366.081" fill-opacity="0" stroke="#44A6F3" stroke-width="8" stroke-opacity="0.503" stroke-linecap="round"/>
    <path d="M1084.536,432.885 L1096.542,425.943" fill-opacity="0" stroke="#44A6F3" stroke-width="8" stroke-opacity="0.503" stroke-linecap="round"/>
    <path d="M1142.753,399.209 L1154.76,392.267" fill-opacity="0" stroke="#44A6F3" stroke-width="8" stroke-opacity="0.503" stroke-linecap="round"/>
    <path d="M1154.76,432.885 L1154.76,432.885" fill-opacity="0" stroke="#44A6F3" stroke-width="8" stroke-opacity="0.503" stroke-linecap="round"/>
    <path d="M523.989,249.063 L536.26,241.992" fill-opacity="0" stroke="#44A6F3" stroke-width="8" stroke-opacity="0.503" stroke-linecap="round"/>
    <path d="M554.91,270.411 L554.91,270.411" fill-opacity="0" stroke="#44A6F3" stroke-width="8" stroke-opacity="0.503" stroke-linecap="round"/>
  </g>
</svg>
