<?xml version="1.0" encoding="UTF-8"?>
<!DOCTYPE svg PUBLIC "-//W3C//DTD SVG 1.1//EN" "http://www.w3.org/Graphics/SVG/1.1/DTD/svg11.dtd">
<svg version="1.1" xmlns="http://www.w3.org/2000/svg" xmlns:xlink="http://www.w3.org/1999/xlink" x="0" y="0" width="1080" height="1080" viewBox="0, 0, 1080, 1080">
  <g id="Livello_1">
    <path d="M214.995,408.333 L208.965,433.796 L260.559,433.796 L202.264,662.956 C192.213,701.149 172.111,807.018 128.558,807.018 C122.527,807.018 118.507,805.008 118.507,800.988 C118.507,792.947 129.228,792.277 129.228,779.546 C129.228,769.495 122.527,757.434 104.436,757.434 C85.004,757.434 75.623,774.185 75.623,790.267 C75.623,810.369 91.704,826.45 123.867,826.45 C182.832,826.45 219.016,762.794 241.127,707.18 C251.178,682.387 256.539,656.925 261.229,638.834 L314.164,433.796 L365.088,433.796 L373.129,408.333 L319.524,408.333 L332.255,361.429 C346.327,309.165 372.459,272.982 405.962,272.982 C414.003,272.982 416.013,274.992 416.013,278.342 C416.013,283.703 409.982,293.754 409.982,303.134 C409.982,312.515 414.673,319.886 433.434,319.886 C446.835,319.886 460.907,311.845 460.907,293.083 C460.907,269.631 441.475,253.55 407.972,253.55 C357.048,253.55 328.235,282.363 307.463,313.855 C278.651,356.739 282.001,408.333 239.787,408.333 z" fill="#444444"/>
    <path d="M477.145,740.502 Q465.367,733.559 452.72,718.991 Q440.074,704.423 432.759,688.678 Q427.304,677.023 424.824,664.935 Q422.345,652.847 422.345,636.853 Q422.345,614.164 427.862,595.876 Q433.379,577.589 446.707,559.673 Q460.035,541.758 476.649,530.351 L483.22,536.179 Q472.31,549.445 467.598,558.992 Q462.887,568.538 459.911,585.4 Q455.944,607.717 455.944,638.589 Q455.944,677.395 462.577,698.224 Q469.21,719.053 483.22,734.055 z" fill="#3C3C3C"/>
    <path d="M496.61,703.927 Q505.413,703.556 508.265,701.448 Q513.348,697.604 541.988,660.286 L525.87,633.505 L519.671,623.091 Q516.324,618.007 513.1,614.536 Q511.116,612.428 509.319,611.622 Q507.521,610.816 505.165,610.816 Q503.057,610.816 498.222,611.436 L496.238,602.138 Q516.076,598.418 533.309,593.955 Q538.888,598.294 544.282,605.547 Q549.675,612.8 562.197,634.993 Q570.256,624.826 575.091,617.883 L589.349,596.806 Q597.78,597.178 599.392,597.178 L613.402,596.806 L613.402,606.477 Q606.211,606.973 604.413,607.655 Q602.616,608.337 597.408,613.606 Q592.201,618.875 580.051,633.505 L569.388,646.399 L587.366,677.395 Q595.673,691.901 600.384,698.224 Q602.74,701.572 604.165,702.192 Q605.591,702.812 613.402,703.927 L613.402,713.598 Q604.227,713.35 588.606,713.35 Q579.679,713.35 574.348,713.598 Q571.496,709.631 566.041,700.456 L558.602,688.306 L549.055,671.692 Q536.781,688.182 533.805,692.521 Q528.226,700.58 519.795,713.598 Q513.224,713.474 509.009,713.474 Q505.165,713.474 496.61,713.598 z" fill="#3C3C3C"/>
    <path d="M631.256,530.351 Q643.158,537.294 655.742,551.862 Q668.327,566.43 675.642,582.176 Q681.221,593.831 683.638,605.919 Q686.056,618.007 686.056,634.001 Q686.056,656.69 680.539,674.977 Q675.022,693.265 661.693,711.18 Q648.365,729.096 631.752,740.502 L625.181,734.675 Q636.215,721.409 640.864,711.862 Q645.514,702.316 648.489,685.454 Q652.581,663.137 652.581,632.265 Q652.581,593.459 645.886,572.63 Q639.191,551.8 625.181,536.799 z" fill="#3C3C3C"/>
    <path d="M720.622,611.932 L857.127,611.932 L857.127,630.778 L720.622,630.778 z M720.622,656.938 L857.127,656.938 L857.127,675.783 L720.622,675.783 z" fill="#353535"/>
    <path d="M894.156,638.464 Q894.156,616.891 897.256,599.038 Q899.24,587.508 904.447,577.837 Q909.654,568.166 916.349,562.091 Q923.044,556.016 931.909,552.792 Q940.774,549.569 950.94,549.569 Q971.398,549.569 982.804,558.434 Q994.21,567.298 999.294,583.602 Q1004.377,599.906 1004.377,628.918 Q1004.377,649.375 1002.331,664.687 Q1000.286,679.999 994.954,690.909 Q989.623,701.82 982.928,708.267 Q976.233,714.714 967.802,718 Q959.371,721.285 947.469,721.285 Q933.335,721.285 922.796,715.892 Q912.258,710.499 905.625,699.96 Q898.992,689.421 896.574,673.738 Q894.156,658.054 894.156,638.464 z M924.284,621.231 Q924.284,649.127 927.136,671.568 Q929.987,694.009 936.248,701.324 Q942.51,708.639 950.692,708.639 Q960.735,708.639 967.306,698.348 Q973.877,688.058 973.877,648.383 Q973.877,622.471 970.654,596.806 Q968.918,583.044 965.88,576.163 Q962.843,569.282 958.317,566.058 Q953.792,562.835 947.841,562.835 Q941.146,562.835 936.062,566.864 Q930.979,570.894 928.251,580.44 Q924.284,593.831 924.284,621.231 z" fill="#353535"/>
  </g>
</svg>
