<?xml version="1.0" encoding="UTF-8"?>
<!DOCTYPE svg PUBLIC "-//W3C//DTD SVG 1.1//EN" "http://www.w3.org/Graphics/SVG/1.1/DTD/svg11.dtd">
<svg version="1.1" xmlns="http://www.w3.org/2000/svg" xmlns:xlink="http://www.w3.org/1999/xlink" x="0" y="0" width="1080" height="1080" viewBox="0, 0, 1080, 1080">
  <g id="Livello_1">
    <path d="M170.102,439.36 L165.493,458.822 L204.93,458.822 L160.371,633.982 C152.689,663.175 137.324,744.097 104.033,744.097 C99.424,744.097 96.351,742.561 96.351,739.488 C96.351,733.342 104.545,732.83 104.545,723.099 C104.545,715.416 99.424,706.197 85.595,706.197 C70.743,706.197 63.572,719.001 63.572,731.293 C63.572,746.658 75.864,758.95 100.448,758.95 C145.519,758.95 173.175,710.294 190.077,667.785 C197.759,648.835 201.857,629.373 205.442,615.544 L245.903,458.822 L284.827,458.822 L290.973,439.36 L250,439.36 L259.731,403.508 C270.487,363.56 290.461,335.903 316.069,335.903 C322.215,335.903 323.752,337.439 323.752,340 C323.752,344.097 319.142,351.78 319.142,358.95 C319.142,366.12 322.727,371.754 337.068,371.754 C347.311,371.754 358.067,365.608 358.067,351.268 C358.067,333.342 343.214,321.05 317.606,321.05 C278.681,321.05 256.658,343.073 240.781,367.145 C218.758,399.923 221.319,439.36 189.053,439.36 z" fill="#444444"/>
    <path d="M377.378,727.452 Q358.438,716.286 338.101,692.859 Q317.764,669.433 306.001,644.112 Q297.228,625.37 293.241,605.931 Q289.253,586.491 289.253,560.771 Q289.253,524.285 298.126,494.877 Q306.998,465.468 328.431,436.658 Q349.864,407.848 376.581,389.505 L387.148,398.876 Q369.603,420.21 362.026,435.562 Q354.45,450.914 349.665,478.029 Q343.285,513.917 343.285,563.563 Q343.285,625.968 353.951,659.464 Q364.618,692.959 387.148,717.084 z" fill="#3C3C3C"/>
    <path d="M387.746,668.573 Q401.902,667.975 406.488,664.586 Q414.662,658.405 460.719,598.392 L434.799,555.327 L424.831,538.579 Q419.447,530.404 414.263,524.822 Q411.073,521.432 408.182,520.136 Q405.291,518.84 401.503,518.84 Q398.114,518.84 390.338,519.837 L387.148,504.884 Q419.049,498.902 446.762,491.725 Q455.734,498.703 464.407,510.367 Q473.08,522.03 493.217,557.719 Q506.177,541.37 513.953,530.205 L536.881,496.311 Q550.439,496.909 553.031,496.909 L575.561,496.311 L575.561,511.862 Q563.997,512.66 561.106,513.756 Q558.215,514.853 549.841,523.326 Q541.467,531.8 521.928,555.327 L504.781,576.062 L533.691,625.906 Q547.049,649.234 554.626,659.402 Q558.414,664.785 560.707,665.782 Q563,666.779 575.561,668.573 L575.561,684.125 Q560.807,683.726 535.685,683.726 Q521.33,683.726 512.756,684.125 Q508.171,677.745 499.398,662.991 L487.435,643.452 L472.083,616.735 Q452.345,643.252 447.56,650.231 Q438.588,663.19 425.03,684.125 Q414.463,683.926 407.684,683.926 Q401.503,683.926 387.746,684.125 z" fill="#3C3C3C"/>
    <path d="M585.33,389.444 Q604.47,400.609 624.707,424.036 Q644.944,447.463 656.708,472.784 Q665.68,491.525 669.568,510.965 Q673.455,530.404 673.455,556.124 Q673.455,592.61 664.583,622.019 Q655.711,651.427 634.278,680.237 Q612.844,709.047 586.128,727.39 L575.561,718.019 Q593.305,696.686 600.782,681.334 Q608.259,665.982 613.044,638.866 Q619.623,602.978 619.623,553.333 Q619.623,490.927 608.857,457.432 Q598.09,423.936 575.561,399.811 z" fill="#3C3C3C"/>
    <path d="M689.01,497.506 L821.755,497.506 L821.755,533.479 L689.01,533.479 z M689.01,583.416 L821.755,583.416 L821.755,619.389 L689.01,619.389 z" fill="#353535"/>
    <path d="M839.18,563.271 Q839.18,528.579 844.165,499.868 Q847.355,481.326 855.729,465.775 Q864.102,450.223 874.869,440.454 Q885.635,430.684 899.891,425.5 Q914.146,420.316 930.495,420.316 Q963.393,420.316 981.736,434.572 Q1000.079,448.828 1008.253,475.046 Q1016.428,501.264 1016.428,547.919 Q1016.428,580.816 1013.138,605.439 Q1009.848,630.063 1001.275,647.608 Q992.702,665.153 981.935,675.521 Q971.169,685.889 957.611,691.172 Q944.053,696.456 924.913,696.456 Q902.184,696.456 885.237,687.783 Q868.289,679.11 857.623,662.163 Q846.956,645.215 843.068,619.994 Q839.18,594.773 839.18,563.271 z M887.629,535.557 Q887.629,580.417 892.215,616.505 Q896.801,652.592 906.869,664.356 Q916.938,676.119 930.097,676.119 Q946.246,676.119 956.813,659.571 Q967.38,643.022 967.38,579.221 Q967.38,537.551 962.197,496.28 Q959.405,474.149 954.521,463.083 Q949.636,452.018 942.359,446.834 Q935.081,441.65 925.511,441.65 Q914.745,441.65 906.57,448.13 Q898.396,454.61 894.009,469.962 Q887.629,491.495 887.629,535.557 z" fill="#353535"/>
  </g>
</svg>
